<svg width="512" height="512" version="1.1" xmlns="http://www.w3.org/2000/svg" desc="Created with imagetracer.js version 1.2.6" ><path fill="rgb(0,0,0)" stroke="rgb(0,0,0)" stroke-width="1" opacity="0" d="M 0 0 L 512 0 L 512 317.5 L 511 317.5 Q 508.2 297.8 494.5 289 Q 482.6 278.1 459 280 L 459 253.5 Q 456.5 252 458 246.5 Q 454.8 235.7 447.5 229 Q 440.5 222.5 429.5 220 L 377.5 220 Q 365.3 222.8 358 230.5 Q 351.9 236.9 349 246.5 Q 350.5 252 348 253.5 L 348 280 L 333.5 280 L 322.5 283 Q 311.2 288.2 304 297.5 Q 292.7 309.9 295 335 L 511.5 335 L 512 335.5 L 512 365 L 295 365 L 295 443.5 Q 298.7 463.3 312.5 473 Q 320.6 479.9 333.5 482 L 473.5 482 Q 493.3 478.3 503 464.5 Q 509.9 456.9 511.5 444 L 512 512 L 0.5 512 L 0 511.5 L 0 471.5 L 1 471.5 L 1 473.5 L 5.5 479 L 11.5 482 L 187.5 482 L 184 477.5 L 144 427.5 Q 139 423.5 140 413.5 L 142 405.5 L 142 398.5 L 144 390.5 L 144 383.5 L 146 375.5 L 146 368.5 L 148 360.5 L 148 353.5 L 150 345.5 L 150 338.5 L 151 337.5 L 155 303.5 L 154 302.5 L 148 261.5 L 146.5 260 L 108.5 260 L 107.5 261 L 95.5 262 L 75.5 268 Q 45.9 280.4 27 303.5 Q 15.4 317.4 8 335.5 L 2 355.5 L 0.5 368 L 0 0 Z M 185 30 L 169 33 L 155 38 L 131 53 Q 116 65 107 82 L 98 104 L 95 120 L 95 141 L 98 157 Q 105 179 118 195 Q 130 208 147 218 L 169 227 L 185 230 L 206 230 L 222 227 Q 244 220 260 207 Q 274 195 283 179 L 292 157 L 295 141 L 295 120 L 292 104 Q 285 81 272 66 Q 257 48 236 38 L 213 31 Q 207 33 206 30 L 185 30 Z M 178 260 L 182 289 L 184 290 L 207 290 L 208 289 L 211 266 L 212 265 Q 212 260 212 260 L 178 260 Z M 244 260 L 242 262 L 236 303 L 235 304 L 239 338 L 240 339 L 240 346 L 242 354 L 242 361 L 244 369 L 244 376 L 246 384 L 246 391 L 248 399 L 248 406 L 250 414 Q 251 424 246 428 L 203 482 L 280 482 L 270 465 L 265 444 L 265 319 L 270 298 L 281 279 L 297 264 L 295 262 L 283 261 L 282 260 L 244 260 Z M 183 320 L 180 346 L 179 347 L 178 361 L 177 362 L 176 376 L 175 377 L 175 384 L 172 399 L 172 406 L 171 407 L 171 414 L 194 442 Q 193 444 196 443 L 219 414 L 218 399 L 215 384 L 215 377 L 213 369 L 213 362 L 211 354 L 208 325 L 207 324 L 207 320 L 183 320 Z " /><path fill="rgb(0,0,0)" stroke="rgb(0,0,0)" stroke-width="1" opacity="0" d="M 382.5 250 L 424.5 250 L 428 252.5 L 428 280 L 379 280 L 379 252.5 L 380.5 251 L 382.5 250 Z " /><path fill="rgb(0,0,0)" stroke="rgb(0,0,0)" stroke-width="1" opacity="0.7725490196078432" d="M 184.5 30 L 191 30.5 L 184.5 31 L 184.5 30 Z " /><path fill="rgb(0,0,0)" stroke="rgb(0,0,0)" stroke-width="1" opacity="0.7725490196078432" d="M 199.5 30 L 206 30.5 L 199.5 31 L 199.5 30 Z " /><path fill="rgb(0,0,0)" stroke="rgb(0,0,0)" stroke-width="1" opacity="0.7725490196078432" d="M 177.5 31 L 180 31.5 L 177.5 32 L 177.5 31 Z " /><path fill="rgb(0,0,0)" stroke="rgb(0,0,0)" stroke-width="1" opacity="0.7725490196078432" d="M 210.5 31 L 213 31.5 L 210.5 32 L 210.5 31 Z " /><path fill="rgb(0,0,0)" stroke="rgb(0,0,0)" stroke-width="1" opacity="0.7725490196078432" d="M 172.5 32 L 175 32.5 L 172.5 33 L 172.5 32 Z " /><path fill="rgb(0,0,0)" stroke="rgb(0,0,0)" stroke-width="1" opacity="0.7725490196078432" d="M 146.5 42 L 145.5 44 L 146.5 42 Z " /><path fill="rgb(0,0,0)" stroke="rgb(0,0,0)" stroke-width="1" opacity="0.7725490196078432" d="M 243.5 42 L 244.5 44 L 243.5 42 Z " /><path fill="rgb(0,0,0)" stroke="rgb(0,0,0)" stroke-width="1" opacity="0.7725490196078432" d="M 141.5 45 L 140.5 47 L 141.5 45 Z " /><path fill="rgb(0,0,0)" stroke="rgb(0,0,0)" stroke-width="1" opacity="0.7725490196078432" d="M 248.5 45 L 249.5 47 L 248.5 45 Z " /><path fill="rgb(0,0,0)" stroke="rgb(0,0,0)" stroke-width="1" opacity="0.7725490196078432" d="M 138.5 47 L 137.5 49 L 138.5 47 Z " /><path fill="rgb(0,0,0)" stroke="rgb(0,0,0)" stroke-width="1" opacity="0.7725490196078432" d="M 251.5 47 L 252.5 49 L 251.5 47 Z " /><path fill="rgb(0,0,0)" stroke="rgb(0,0,0)" stroke-width="1" opacity="0.7725490196078432" d="M 134.5 50 L 133.5 52 L 134.5 50 Z " /><path fill="rgb(0,0,0)" stroke="rgb(0,0,0)" stroke-width="1" opacity="0.7725490196078432" d="M 255.5 50 L 256.5 52 L 255.5 50 Z " /><path fill="rgb(0,0,0)" stroke="rgb(0,0,0)" stroke-width="1" opacity="0.7725490196078432" d="M 130.5 53 L 118.5 66 L 130.5 53 Z " /><path fill="rgb(0,0,0)" stroke="rgb(0,0,0)" stroke-width="1" opacity="0.7725490196078432" d="M 259.5 53 L 271.5 66 L 259.5 53 Z " /><path fill="rgb(0,0,0)" stroke="rgb(0,0,0)" stroke-width="1" opacity="0.7725490196078432" d="M 116.5 68 L 115.5 70 L 116.5 68 Z " /><path fill="rgb(0,0,0)" stroke="rgb(0,0,0)" stroke-width="1" opacity="0.7725490196078432" d="M 273.5 68 L 274.5 70 L 273.5 68 Z " /><path fill="rgb(0,0,0)" stroke="rgb(0,0,0)" stroke-width="1" opacity="0.7725490196078432" d="M 113.5 72 L 112.5 74 L 113.5 72 Z " /><path fill="rgb(0,0,0)" stroke="rgb(0,0,0)" stroke-width="1" opacity="0.7725490196078432" d="M 276.5 72 L 277.5 74 L 276.5 72 Z " /><path fill="rgb(0,0,0)" stroke="rgb(0,0,0)" stroke-width="1" opacity="0.7725490196078432" d="M 111.5 75 L 110.5 77 L 111.5 75 Z " /><path fill="rgb(0,0,0)" stroke="rgb(0,0,0)" stroke-width="1" opacity="0.7725490196078432" d="M 278.5 75 L 279.5 77 L 278.5 75 Z " /><path fill="rgb(0,0,0)" stroke="rgb(0,0,0)" stroke-width="1" opacity="0.7725490196078432" d="M 108.5 80 L 107.5 82 L 108.5 80 Z " /><path fill="rgb(0,0,0)" stroke="rgb(0,0,0)" stroke-width="1" opacity="0.7725490196078432" d="M 281.5 80 L 282.5 82 L 281.5 80 Z " /><path fill="rgb(0,0,0)" stroke="rgb(0,0,0)" stroke-width="1" opacity="0.7725490196078432" d="M 292.5 107 L 293 109.5 L 292 109.5 L 292.5 107 Z " /><path fill="rgb(0,0,0)" stroke="rgb(0,0,0)" stroke-width="1" opacity="0.7725490196078432" d="M 96.5 112 L 97 114.5 L 96 114.5 L 96.5 112 Z " /><path fill="rgb(0,0,0)" stroke="rgb(0,0,0)" stroke-width="1" opacity="0.7725490196078432" d="M 293.5 112 L 294 114.5 L 293 114.5 L 293.5 112 Z " /><path fill="rgb(0,0,0)" stroke="rgb(0,0,0)" stroke-width="1" opacity="0.7725490196078432" d="M 95.5 119 L 96 124.5 L 95 124.5 L 95.5 119 Z " /><path fill="rgb(0,0,0)" stroke="rgb(0,0,0)" stroke-width="1" opacity="0.7725490196078432" d="M 294.5 119 L 295 125.5 L 294 125.5 L 294.5 119 Z " /><path fill="rgb(0,0,0)" stroke="rgb(0,0,0)" stroke-width="1" opacity="0.7725490196078432" d="M 294.5 134 L 295 140.5 L 294 140.5 L 294.5 134 Z " /><path fill="rgb(0,0,0)" stroke="rgb(0,0,0)" stroke-width="1" opacity="0.7725490196078432" d="M 95.5 135 L 96 140.5 L 95 140.5 L 95.5 135 Z " /><path fill="rgb(0,0,0)" stroke="rgb(0,0,0)" stroke-width="1" opacity="0.7725490196078432" d="M 96.5 145 L 97 147.5 L 96 147.5 L 96.5 145 Z " /><path fill="rgb(0,0,0)" stroke="rgb(0,0,0)" stroke-width="1" opacity="0.7725490196078432" d="M 293.5 145 L 294 147.5 L 293 147.5 L 293.5 145 Z " /><path fill="rgb(0,0,0)" stroke="rgb(0,0,0)" stroke-width="1" opacity="0.7725490196078432" d="M 292.5 150 L 293 152.5 L 292 152.5 L 292.5 150 Z " /><path fill="rgb(0,0,0)" stroke="rgb(0,0,0)" stroke-width="1" opacity="0.7725490196078432" d="M 107.5 178 L 108.5 180 L 107.5 178 Z " /><path fill="rgb(0,0,0)" stroke="rgb(0,0,0)" stroke-width="1" opacity="0.7725490196078432" d="M 282.5 178 L 281.5 180 L 282.5 178 Z " /><path fill="rgb(0,0,0)" stroke="rgb(0,0,0)" stroke-width="1" opacity="0.7725490196078432" d="M 110.5 183 L 111.5 185 L 110.5 183 Z " /><path fill="rgb(0,0,0)" stroke="rgb(0,0,0)" stroke-width="1" opacity="0.7725490196078432" d="M 279.5 183 L 278.5 185 L 279.5 183 Z " /><path fill="rgb(0,0,0)" stroke="rgb(0,0,0)" stroke-width="1" opacity="0.7725490196078432" d="M 112.5 186 L 113.5 188 L 112.5 186 Z " /><path fill="rgb(0,0,0)" stroke="rgb(0,0,0)" stroke-width="1" opacity="0.7725490196078432" d="M 277.5 186 L 276.5 188 L 277.5 186 Z " /><path fill="rgb(0,0,0)" stroke="rgb(0,0,0)" stroke-width="1" opacity="0.7725490196078432" d="M 115.5 190 L 116.5 192 L 115.5 190 Z " /><path fill="rgb(0,0,0)" stroke="rgb(0,0,0)" stroke-width="1" opacity="0.7725490196078432" d="M 274.5 190 L 273.5 192 L 274.5 190 Z " /><path fill="rgb(0,0,0)" stroke="rgb(0,0,0)" stroke-width="1" opacity="0.7725490196078432" d="M 118.5 194 L 129.5 206 L 118.5 194 Z " /><path fill="rgb(0,0,0)" stroke="rgb(0,0,0)" stroke-width="1" opacity="0.7725490196078432" d="M 271.5 194 L 259.5 207 L 271.5 194 Z " /><path fill="rgb(0,0,0)" stroke="rgb(0,0,0)" stroke-width="1" opacity="0.7725490196078432" d="M 133.5 208 L 134.5 210 L 133.5 208 Z " /><path fill="rgb(0,0,0)" stroke="rgb(0,0,0)" stroke-width="1" opacity="0.7725490196078432" d="M 256.5 208 L 255.5 210 L 256.5 208 Z " /><path fill="rgb(0,0,0)" stroke="rgb(0,0,0)" stroke-width="1" opacity="0.7725490196078432" d="M 137.5 211 L 138.5 213 L 137.5 211 Z " /><path fill="rgb(0,0,0)" stroke="rgb(0,0,0)" stroke-width="1" opacity="0.7725490196078432" d="M 252.5 211 L 251.5 213 L 252.5 211 Z " /><path fill="rgb(0,0,0)" stroke="rgb(0,0,0)" stroke-width="1" opacity="0.7725490196078432" d="M 140.5 213 L 141.5 215 L 140.5 213 Z " /><path fill="rgb(0,0,0)" stroke="rgb(0,0,0)" stroke-width="1" opacity="0.7725490196078432" d="M 249.5 213 L 248.5 215 L 249.5 213 Z " /><path fill="rgb(0,0,0)" stroke="rgb(0,0,0)" stroke-width="1" opacity="0.7725490196078432" d="M 145.5 216 L 146.5 218 L 145.5 216 Z " /><path fill="rgb(0,0,0)" stroke="rgb(0,0,0)" stroke-width="1" opacity="0.7725490196078432" d="M 244.5 216 L 243.5 218 L 244.5 216 Z " /><path fill="rgb(0,0,0)" stroke="rgb(0,0,0)" stroke-width="1" opacity="0.7725490196078432" d="M 377.5 220 L 381 220.5 L 377.5 221 L 377.5 220 Z " /><path fill="rgb(0,0,0)" stroke="rgb(0,0,0)" stroke-width="1" opacity="0.7725490196078432" d="M 426.5 220 L 430 220.5 L 426.5 221 L 426.5 220 Z " /><path fill="rgb(0,0,0)" stroke="rgb(0,0,0)" stroke-width="1" opacity="0.7725490196078432" d="M 363.5 226 L 362.5 228 L 363.5 226 Z " /><path fill="rgb(0,0,0)" stroke="rgb(0,0,0)" stroke-width="1" opacity="0.7725490196078432" d="M 443.5 226 L 444.5 228 L 443.5 226 Z " /><path fill="rgb(0,0,0)" stroke="rgb(0,0,0)" stroke-width="1" opacity="0.7725490196078432" d="M 172.5 227 L 175 227.5 L 172.5 228 L 172.5 227 Z " /><path fill="rgb(0,0,0)" stroke="rgb(0,0,0)" stroke-width="1" opacity="0.7725490196078432" d="M 215.5 227 L 218 227.5 L 215.5 228 L 215.5 227 Z " /><path fill="rgb(0,0,0)" stroke="rgb(0,0,0)" stroke-width="1" opacity="0.7725490196078432" d="M 177.5 228 L 180 228.5 L 177.5 229 L 177.5 228 Z " /><path fill="rgb(0,0,0)" stroke="rgb(0,0,0)" stroke-width="1" opacity="0.7725490196078432" d="M 210.5 228 L 213 228.5 L 210.5 229 L 210.5 228 Z " /><path fill="rgb(0,0,0)" stroke="rgb(0,0,0)" stroke-width="1" opacity="0.7725490196078432" d="M 184.5 229 L 191 229.5 L 184.5 230 L 184.5 229 Z " /><path fill="rgb(0,0,0)" stroke="rgb(0,0,0)" stroke-width="1" opacity="0.7725490196078432" d="M 199.5 229 L 206 229.5 L 199.5 230 L 199.5 229 Z " /><path fill="rgb(0,0,0)" stroke="rgb(0,0,0)" stroke-width="1" opacity="0.7725490196078432" d="M 359.5 229 L 358.5 231 L 359.5 229 Z " /><path fill="rgb(0,0,0)" stroke="rgb(0,0,0)" stroke-width="1" opacity="0.7725490196078432" d="M 447.5 229 L 448.5 231 L 447.5 229 Z " /><path fill="rgb(0,0,0)" stroke="rgb(0,0,0)" stroke-width="1" opacity="0.7725490196078432" d="M 355.5 234 L 354.5 236 L 355.5 234 Z " /><path fill="rgb(0,0,0)" stroke="rgb(0,0,0)" stroke-width="1" opacity="0.7725490196078432" d="M 451.5 234 L 452.5 236 L 451.5 234 Z " /><path fill="rgb(0,0,0)" stroke="rgb(0,0,0)" stroke-width="1" opacity="0.7725490196078432" d="M 349.5 246 L 350 248.5 L 349 248.5 L 349.5 246 Z " /><path fill="rgb(0,0,0)" stroke="rgb(0,0,0)" stroke-width="1" opacity="0.7725490196078432" d="M 457.5 246 L 458 248.5 L 457 248.5 L 457.5 246 Z " /><path fill="rgb(0,0,0)" stroke="rgb(0,0,0)" stroke-width="1" opacity="0.7725490196078432" d="M 348.5 253 L 349 279.5 L 348 279.5 L 348.5 253 Z " /><path fill="rgb(0,0,0)" stroke="rgb(0,0,0)" stroke-width="1" opacity="0.7725490196078432" d="M 378.5 253 L 379 279.5 L 378 279.5 L 378.5 253 Z " /><path fill="rgb(0,0,0)" stroke="rgb(0,0,0)" stroke-width="1" opacity="0.7725490196078432" d="M 428.5 253 L 429 279.5 L 428 279.5 L 428.5 253 Z " /><path fill="rgb(0,0,0)" stroke="rgb(0,0,0)" stroke-width="1" opacity="0.7725490196078432" d="M 458.5 253 L 459 279.5 L 458 279.5 L 458.5 253 Z " /><path fill="rgb(0,0,0)" stroke="rgb(0,0,0)" stroke-width="1" opacity="0.7725490196078432" d="M 108.5 260 L 116 260.5 L 108.5 261 L 108.5 260 Z " /><path fill="rgb(0,0,0)" stroke="rgb(0,0,0)" stroke-width="1" opacity="0.7725490196078432" d="M 274.5 260 L 282 260.5 L 274.5 261 L 274.5 260 Z " /><path fill="rgb(0,0,0)" stroke="rgb(0,0,0)" stroke-width="1" opacity="0.7725490196078432" d="M 100.5 261 L 104 261.5 L 100.5 262 L 100.5 261 Z " /><path fill="rgb(0,0,0)" stroke="rgb(0,0,0)" stroke-width="1" opacity="0.7725490196078432" d="M 147.5 261 L 148 263.5 L 147 263.5 L 147.5 261 Z " /><path fill="rgb(0,0,0)" stroke="rgb(0,0,0)" stroke-width="1" opacity="0.7725490196078432" d="M 242.5 261 L 243 263.5 L 242 263.5 L 242.5 261 Z " /><path fill="rgb(0,0,0)" stroke="rgb(0,0,0)" stroke-width="1" opacity="0.7725490196078432" d="M 286.5 261 L 289 261.5 L 286.5 262 L 286.5 261 Z " /><path fill="rgb(0,0,0)" stroke="rgb(0,0,0)" stroke-width="1" opacity="0.7725490196078432" d="M 95.5 262 L 98 262.5 L 95.5 263 L 95.5 262 Z " /><path fill="rgb(0,0,0)" stroke="rgb(0,0,0)" stroke-width="1" opacity="0.7725490196078432" d="M 178.5 262 L 179 264.5 L 178 264.5 L 178.5 262 Z " /><path fill="rgb(0,0,0)" stroke="rgb(0,0,0)" stroke-width="1" opacity="0.7725490196078432" d="M 211.5 262 L 212 264.5 L 211 264.5 L 211.5 262 Z " /><path fill="rgb(0,0,0)" stroke="rgb(0,0,0)" stroke-width="1" opacity="0.7725490196078432" d="M 296.5 263 L 294.5 266 L 296.5 263 Z " /><path fill="rgb(0,0,0)" stroke="rgb(0,0,0)" stroke-width="1" opacity="0.7725490196078432" d="M 148.5 267 L 149 269.5 L 148 269.5 L 148.5 267 Z " /><path fill="rgb(0,0,0)" stroke="rgb(0,0,0)" stroke-width="1" opacity="0.7725490196078432" d="M 241.5 267 L 242 269.5 L 241 269.5 L 241.5 267 Z " /><path fill="rgb(0,0,0)" stroke="rgb(0,0,0)" stroke-width="1" opacity="0.7725490196078432" d="M 291.5 267 L 282.5 277 L 291.5 267 Z " /><path fill="rgb(0,0,0)" stroke="rgb(0,0,0)" stroke-width="1" opacity="0.7725490196078432" d="M 179.5 268 L 180 270.5 L 179 270.5 L 179.5 268 Z " /><path fill="rgb(0,0,0)" stroke="rgb(0,0,0)" stroke-width="1" opacity="0.7725490196078432" d="M 210.5 268 L 211 270.5 L 210 270.5 L 210.5 268 Z " /><path fill="rgb(0,0,0)" stroke="rgb(0,0,0)" stroke-width="1" opacity="0.7725490196078432" d="M 66.5 272 L 65.5 274 L 66.5 272 Z " /><path fill="rgb(0,0,0)" stroke="rgb(0,0,0)" stroke-width="1" opacity="0.7725490196078432" d="M 149.5 273 L 150 275.5 L 149 275.5 L 149.5 273 Z " /><path fill="rgb(0,0,0)" stroke="rgb(0,0,0)" stroke-width="1" opacity="0.7725490196078432" d="M 240.5 273 L 241 275.5 L 240 275.5 L 240.5 273 Z " /><path fill="rgb(0,0,0)" stroke="rgb(0,0,0)" stroke-width="1" opacity="0.7725490196078432" d="M 180.5 274 L 181 276.5 L 180 276.5 L 180.5 274 Z " /><path fill="rgb(0,0,0)" stroke="rgb(0,0,0)" stroke-width="1" opacity="0.7725490196078432" d="M 209.5 274 L 210 276.5 L 209 276.5 L 209.5 274 Z " /><path fill="rgb(0,0,0)" stroke="rgb(0,0,0)" stroke-width="1" opacity="0.7725490196078432" d="M 57.5 277 L 56.5 279 L 57.5 277 Z " /><path fill="rgb(0,0,0)" stroke="rgb(0,0,0)" stroke-width="1" opacity="0.7725490196078432" d="M 54.5 279 L 53.5 281 L 54.5 279 Z " /><path fill="rgb(0,0,0)" stroke="rgb(0,0,0)" stroke-width="1" opacity="0.7725490196078432" d="M 150.5 279 L 151 281.5 L 150 281.5 L 150.5 279 Z " /><path fill="rgb(0,0,0)" stroke="rgb(0,0,0)" stroke-width="1" opacity="0.7725490196078432" d="M 239.5 279 L 240 281.5 L 239 281.5 L 239.5 279 Z " /><path fill="rgb(0,0,0)" stroke="rgb(0,0,0)" stroke-width="1" opacity="0.7725490196078432" d="M 280.5 279 L 278.5 282 L 280.5 279 Z " /><path fill="rgb(0,0,0)" stroke="rgb(0,0,0)" stroke-width="1" opacity="0.7725490196078432" d="M 181.5 280 L 182 282.5 L 181 282.5 L 181.5 280 Z " /><path fill="rgb(0,0,0)" stroke="rgb(0,0,0)" stroke-width="1" opacity="0.7725490196078432" d="M 208.5 280 L 209 282.5 L 208 282.5 L 208.5 280 Z " /><path fill="rgb(0,0,0)" stroke="rgb(0,0,0)" stroke-width="1" opacity="0.7725490196078432" d="M 333.5 280 L 338 280.5 L 333.5 281 L 333.5 280 Z " /><path fill="rgb(0,0,0)" stroke="rgb(0,0,0)" stroke-width="1" opacity="0.7725490196078432" d="M 469.5 280 L 474 280.5 L 469.5 281 L 469.5 280 Z " /><path fill="rgb(0,0,0)" stroke="rgb(0,0,0)" stroke-width="1" opacity="0.7725490196078432" d="M 51.5 281 L 50.5 283 L 51.5 281 Z " /><path fill="rgb(0,0,0)" stroke="rgb(0,0,0)" stroke-width="1" opacity="0.7725490196078432" d="M 277.5 283 L 276.5 285 L 277.5 283 Z " /><path fill="rgb(0,0,0)" stroke="rgb(0,0,0)" stroke-width="1" opacity="0.7725490196078432" d="M 47.5 284 L 46.5 286 L 47.5 284 Z " /><path fill="rgb(0,0,0)" stroke="rgb(0,0,0)" stroke-width="1" opacity="0.7725490196078432" d="M 151.5 285 L 152 287.5 L 151 287.5 L 151.5 285 Z " /><path fill="rgb(0,0,0)" stroke="rgb(0,0,0)" stroke-width="1" opacity="0.7725490196078432" d="M 238.5 285 L 239 287.5 L 238 287.5 L 238.5 285 Z " /><path fill="rgb(0,0,0)" stroke="rgb(0,0,0)" stroke-width="1" opacity="0.7725490196078432" d="M 318.5 285 L 317.5 287 L 318.5 285 Z " /><path fill="rgb(0,0,0)" stroke="rgb(0,0,0)" stroke-width="1" opacity="0.7725490196078432" d="M 182.5 286 L 183 288.5 L 182 288.5 L 182.5 286 Z " /><path fill="rgb(0,0,0)" stroke="rgb(0,0,0)" stroke-width="1" opacity="0.7725490196078432" d="M 207.5 286 L 208 288.5 L 207 288.5 L 207.5 286 Z " /><path fill="rgb(0,0,0)" stroke="rgb(0,0,0)" stroke-width="1" opacity="0.7725490196078432" d="M 43.5 287 L 39.5 292 L 43.5 287 Z " /><path fill="rgb(0,0,0)" stroke="rgb(0,0,0)" stroke-width="1" opacity="0.7725490196078432" d="M 312.5 289 L 310.5 292 L 312.5 289 Z " /><path fill="rgb(0,0,0)" stroke="rgb(0,0,0)" stroke-width="1" opacity="0.7725490196078432" d="M 494.5 289 L 496.5 292 L 494.5 289 Z " /><path fill="rgb(0,0,0)" stroke="rgb(0,0,0)" stroke-width="1" opacity="0.7725490196078432" d="M 152.5 291 L 153 293.5 L 152 293.5 L 152.5 291 Z " /><path fill="rgb(0,0,0)" stroke="rgb(0,0,0)" stroke-width="1" opacity="0.7725490196078432" d="M 237.5 291 L 238 293.5 L 237 293.5 L 237.5 291 Z " /><path fill="rgb(0,0,0)" stroke="rgb(0,0,0)" stroke-width="1" opacity="0.7725490196078432" d="M 307.5 294 L 304.5 298 L 307.5 294 Z " /><path fill="rgb(0,0,0)" stroke="rgb(0,0,0)" stroke-width="1" opacity="0.7725490196078432" d="M 500.5 295 L 502.5 298 L 500.5 295 Z " /><path fill="rgb(0,0,0)" stroke="rgb(0,0,0)" stroke-width="1" opacity="0.7725490196078432" d="M 153.5 297 L 154 299.5 L 153 299.5 L 153.5 297 Z " /><path fill="rgb(0,0,0)" stroke="rgb(0,0,0)" stroke-width="1" opacity="0.7725490196078432" d="M 236.5 297 L 237 299.5 L 236 299.5 L 236.5 297 Z " /><path fill="rgb(0,0,0)" stroke="rgb(0,0,0)" stroke-width="1" opacity="0.7725490196078432" d="M 31.5 299 L 27.5 304 L 31.5 299 Z " /><path fill="rgb(0,0,0)" stroke="rgb(0,0,0)" stroke-width="1" opacity="0.7725490196078432" d="M 505.5 302 L 506.5 304 L 505.5 302 Z " /><path fill="rgb(0,0,0)" stroke="rgb(0,0,0)" stroke-width="1" opacity="0.7725490196078432" d="M 154.5 303 L 155 308.5 L 154 308.5 L 154.5 303 Z " /><path fill="rgb(0,0,0)" stroke="rgb(0,0,0)" stroke-width="1" opacity="0.7725490196078432" d="M 235.5 303 L 236 308.5 L 235 308.5 L 235.5 303 Z " /><path fill="rgb(0,0,0)" stroke="rgb(0,0,0)" stroke-width="1" opacity="0.7725490196078432" d="M 25.5 306 L 24.5 308 L 25.5 306 Z " /><path fill="rgb(0,0,0)" stroke="rgb(0,0,0)" stroke-width="1" opacity="0.7725490196078432" d="M 266.5 308 L 267 310.5 L 266 310.5 L 266.5 308 Z " /><path fill="rgb(0,0,0)" stroke="rgb(0,0,0)" stroke-width="1" opacity="0.7725490196078432" d="M 22.5 310 L 21.5 312 L 22.5 310 Z " /><path fill="rgb(0,0,0)" stroke="rgb(0,0,0)" stroke-width="1" opacity="0.7725490196078432" d="M 153.5 312 L 154 315.5 L 153 315.5 L 153.5 312 Z " /><path fill="rgb(0,0,0)" stroke="rgb(0,0,0)" stroke-width="1" opacity="0.7725490196078432" d="M 236.5 312 L 237 315.5 L 236 315.5 L 236.5 312 Z " /><path fill="rgb(0,0,0)" stroke="rgb(0,0,0)" stroke-width="1" opacity="0.7725490196078432" d="M 20.5 313 L 19.5 315 L 20.5 313 Z " /><path fill="rgb(0,0,0)" stroke="rgb(0,0,0)" stroke-width="1" opacity="0.7725490196078432" d="M 265.5 314 L 266 317.5 L 265 317.5 L 265.5 314 Z " /><path fill="rgb(0,0,0)" stroke="rgb(0,0,0)" stroke-width="1" opacity="0.7725490196078432" d="M 18.5 316 L 17.5 318 L 18.5 316 Z " /><path fill="rgb(0,0,0)" stroke="rgb(0,0,0)" stroke-width="1" opacity="0.7725490196078432" d="M 295.5 318 L 296 322.5 L 295 322.5 L 295.5 318 Z " /><path fill="rgb(0,0,0)" stroke="rgb(0,0,0)" stroke-width="1" opacity="0.7725490196078432" d="M 511.5 318 L 512 322.5 L 511 322.5 L 511.5 318 Z " /><path fill="rgb(0,0,0)" stroke="rgb(0,0,0)" stroke-width="1" opacity="0.7725490196078432" d="M 152.5 320 L 153 323.5 L 152 323.5 L 152.5 320 Z " /><path fill="rgb(0,0,0)" stroke="rgb(0,0,0)" stroke-width="1" opacity="0.7725490196078432" d="M 237.5 320 L 238 323.5 L 237 323.5 L 237.5 320 Z " /><path fill="rgb(0,0,0)" stroke="rgb(0,0,0)" stroke-width="1" opacity="0.7725490196078432" d="M 14.5 323 L 14 324.5 L 12.5 327 L 13 325.5 L 14.5 323 Z " /><path fill="rgb(0,0,0)" stroke="rgb(0,0,0)" stroke-width="1" opacity="0.7725490196078432" d="M 182.5 324 L 183 327.5 L 182 327.5 L 182.5 324 Z " /><path fill="rgb(0,0,0)" stroke="rgb(0,0,0)" stroke-width="1" opacity="0.7725490196078432" d="M 207.5 324 L 208 327.5 L 207 327.5 L 207.5 324 Z " /><path fill="rgb(0,0,0)" stroke="rgb(0,0,0)" stroke-width="1" opacity="0.7725490196078432" d="M 151.5 327 L 152 330.5 L 151 330.5 L 151.5 327 Z " /><path fill="rgb(0,0,0)" stroke="rgb(0,0,0)" stroke-width="1" opacity="0.7725490196078432" d="M 238.5 327 L 239 330.5 L 238 330.5 L 238.5 327 Z " /><path fill="rgb(0,0,0)" stroke="rgb(0,0,0)" stroke-width="1" opacity="0.7725490196078432" d="M 181.5 331 L 182 334.5 L 181 334.5 L 181.5 331 Z " /><path fill="rgb(0,0,0)" stroke="rgb(0,0,0)" stroke-width="1" opacity="0.7725490196078432" d="M 208.5 331 L 209 334.5 L 208 334.5 L 208.5 331 Z " /><path fill="rgb(0,0,0)" stroke="rgb(0,0,0)" stroke-width="1" opacity="0.7725490196078432" d="M 150.5 335 L 151 337.5 L 150 337.5 L 150.5 335 Z " /><path fill="rgb(0,0,0)" stroke="rgb(0,0,0)" stroke-width="1" opacity="0.7725490196078432" d="M 239.5 335 L 240 337.5 L 239 337.5 L 239.5 335 Z " /><path fill="rgb(0,0,0)" stroke="rgb(0,0,0)" stroke-width="1" opacity="0.7725490196078432" d="M 180.5 339 L 181 341.5 L 180 341.5 L 180.5 339 Z " /><path fill="rgb(0,0,0)" stroke="rgb(0,0,0)" stroke-width="1" opacity="0.7725490196078432" d="M 209.5 339 L 210 342.5 L 209 342.5 L 209.5 339 Z " /><path fill="rgb(0,0,0)" stroke="rgb(0,0,0)" stroke-width="1" opacity="0.7725490196078432" d="M 149.5 342 L 150 345.5 L 149 345.5 L 149.5 342 Z " /><path fill="rgb(0,0,0)" stroke="rgb(0,0,0)" stroke-width="1" opacity="0.7725490196078432" d="M 240.5 342 L 241 345.5 L 240 345.5 L 240.5 342 Z " /><path fill="rgb(0,0,0)" stroke="rgb(0,0,0)" stroke-width="1" opacity="0.7725490196078432" d="M 179.5 346 L 180 349.5 L 179 349.5 L 179.5 346 Z " /><path fill="rgb(0,0,0)" stroke="rgb(0,0,0)" stroke-width="1" opacity="0.7725490196078432" d="M 210.5 346 L 211 349.5 L 210 349.5 L 210.5 346 Z " /><path fill="rgb(0,0,0)" stroke="rgb(0,0,0)" stroke-width="1" opacity="0.7725490196078432" d="M 148.5 350 L 149 352.5 L 148 352.5 L 148.5 350 Z " /><path fill="rgb(0,0,0)" stroke="rgb(0,0,0)" stroke-width="1" opacity="0.7725490196078432" d="M 241.5 350 L 242 352.5 L 241 352.5 L 241.5 350 Z " /><path fill="rgb(0,0,0)" stroke="rgb(0,0,0)" stroke-width="1" opacity="0.7725490196078432" d="M 178.5 354 L 179 356.5 L 178 356.5 L 178.5 354 Z " /><path fill="rgb(0,0,0)" stroke="rgb(0,0,0)" stroke-width="1" opacity="0.7725490196078432" d="M 211.5 354 L 212 356.5 L 211 356.5 L 211.5 354 Z " /><path fill="rgb(0,0,0)" stroke="rgb(0,0,0)" stroke-width="1" opacity="0.7725490196078432" d="M 2.5 355 L 3 357.5 L 2 357.5 L 2.5 355 Z " /><path fill="rgb(0,0,0)" stroke="rgb(0,0,0)" stroke-width="1" opacity="0.7725490196078432" d="M 147.5 357 L 148 360.5 L 147 360.5 L 147.5 357 Z " /><path fill="rgb(0,0,0)" stroke="rgb(0,0,0)" stroke-width="1" opacity="0.7725490196078432" d="M 242.5 357 L 243 360.5 L 242 360.5 L 242.5 357 Z " /><path fill="rgb(0,0,0)" stroke="rgb(0,0,0)" stroke-width="1" opacity="0.7725490196078432" d="M 1.5 360 L 2 363.5 L 1 363.5 L 1.5 360 Z " /><path fill="rgb(0,0,0)" stroke="rgb(0,0,0)" stroke-width="1" opacity="0.7725490196078432" d="M 177.5 361 L 178 364.5 L 177 364.5 L 177.5 361 Z " /><path fill="rgb(0,0,0)" stroke="rgb(0,0,0)" stroke-width="1" opacity="0.7725490196078432" d="M 212.5 361 L 213 364.5 L 212 364.5 L 212.5 361 Z " /><path fill="rgb(0,0,0)" stroke="rgb(0,0,0)" stroke-width="1" opacity="0.7725490196078432" d="M 146.5 365 L 147 367.5 L 146 367.5 L 146.5 365 Z " /><path fill="rgb(0,0,0)" stroke="rgb(0,0,0)" stroke-width="1" opacity="0.7725490196078432" d="M 243.5 365 L 244 367.5 L 243 367.5 L 243.5 365 Z " /><path fill="rgb(0,0,0)" stroke="rgb(0,0,0)" stroke-width="1" opacity="0.7725490196078432" d="M 0.5 368 L 1 374.5 L 0 374.5 L 0.5 368 Z " /><path fill="rgb(0,0,0)" stroke="rgb(0,0,0)" stroke-width="1" opacity="0.7725490196078432" d="M 176.5 369 L 177 371.5 L 176 371.5 L 176.5 369 Z " /><path fill="rgb(0,0,0)" stroke="rgb(0,0,0)" stroke-width="1" opacity="0.7725490196078432" d="M 213.5 369 L 214 371.5 L 213 371.5 L 213.5 369 Z " /><path fill="rgb(0,0,0)" stroke="rgb(0,0,0)" stroke-width="1" opacity="0.7725490196078432" d="M 145.5 372 L 146 375.5 L 145 375.5 L 145.5 372 Z " /><path fill="rgb(0,0,0)" stroke="rgb(0,0,0)" stroke-width="1" opacity="0.7725490196078432" d="M 244.5 372 L 245 375.5 L 244 375.5 L 244.5 372 Z " /><path fill="rgb(0,0,0)" stroke="rgb(0,0,0)" stroke-width="1" opacity="0.7725490196078432" d="M 175.5 376 L 176 379.5 L 175 379.5 L 175.5 376 Z " /><path fill="rgb(0,0,0)" stroke="rgb(0,0,0)" stroke-width="1" opacity="0.7725490196078432" d="M 214.5 376 L 215 379.5 L 214 379.5 L 214.5 376 Z " /><path fill="rgb(0,0,0)" stroke="rgb(0,0,0)" stroke-width="1" opacity="0.7725490196078432" d="M 144.5 379 L 145 382.5 L 144 382.5 L 144.5 379 Z " /><path fill="rgb(0,0,0)" stroke="rgb(0,0,0)" stroke-width="1" opacity="0.7725490196078432" d="M 245.5 380 L 246 382.5 L 245 382.5 L 245.5 380 Z " /><path fill="rgb(0,0,0)" stroke="rgb(0,0,0)" stroke-width="1" opacity="0.7725490196078432" d="M 174.5 384 L 175 386.5 L 174 386.5 L 174.5 384 Z " /><path fill="rgb(0,0,0)" stroke="rgb(0,0,0)" stroke-width="1" opacity="0.7725490196078432" d="M 215.5 384 L 216 386.5 L 215 386.5 L 215.5 384 Z " /><path fill="rgb(0,0,0)" stroke="rgb(0,0,0)" stroke-width="1" opacity="0.7725490196078432" d="M 143.5 387 L 144 390.5 L 143 390.5 L 143.5 387 Z " /><path fill="rgb(0,0,0)" stroke="rgb(0,0,0)" stroke-width="1" opacity="0.7725490196078432" d="M 246.5 387 L 247 390.5 L 246 390.5 L 246.5 387 Z " /><path fill="rgb(0,0,0)" stroke="rgb(0,0,0)" stroke-width="1" opacity="0.7725490196078432" d="M 173.5 391 L 174 394.5 L 173 394.5 L 173.5 391 Z " /><path fill="rgb(0,0,0)" stroke="rgb(0,0,0)" stroke-width="1" opacity="0.7725490196078432" d="M 216.5 391 L 217 394.5 L 216 394.5 L 216.5 391 Z " /><path fill="rgb(0,0,0)" stroke="rgb(0,0,0)" stroke-width="1" opacity="0.7725490196078432" d="M 142.5 394 L 143 397.5 L 142 397.5 L 142.5 394 Z " /><path fill="rgb(0,0,0)" stroke="rgb(0,0,0)" stroke-width="1" opacity="0.7725490196078432" d="M 247.5 394 L 248 397.5 L 247 397.5 L 247.5 394 Z " /><path fill="rgb(0,0,0)" stroke="rgb(0,0,0)" stroke-width="1" opacity="0.7725490196078432" d="M 172.5 398 L 173 401.5 L 172 401.5 L 172.5 398 Z " /><path fill="rgb(0,0,0)" stroke="rgb(0,0,0)" stroke-width="1" opacity="0.7725490196078432" d="M 217.5 398 L 218 401.5 L 217 401.5 L 217.5 398 Z " /><path fill="rgb(0,0,0)" stroke="rgb(0,0,0)" stroke-width="1" opacity="0.7725490196078432" d="M 141.5 402 L 142 405.5 L 141 405.5 L 141.5 402 Z " /><path fill="rgb(0,0,0)" stroke="rgb(0,0,0)" stroke-width="1" opacity="0.7725490196078432" d="M 248.5 402 L 249 405.5 L 248 405.5 L 248.5 402 Z " /><path fill="rgb(0,0,0)" stroke="rgb(0,0,0)" stroke-width="1" opacity="0.7725490196078432" d="M 171.5 406 L 172 409.5 L 171 409.5 L 171.5 406 Z " /><path fill="rgb(0,0,0)" stroke="rgb(0,0,0)" stroke-width="1" opacity="0.7725490196078432" d="M 218.5 406 L 219 409.5 L 218 409.5 L 218.5 406 Z " /><path fill="rgb(0,0,0)" stroke="rgb(0,0,0)" stroke-width="1" opacity="0.7725490196078432" d="M 140.5 409 L 141 412.5 L 140 412.5 L 140.5 409 Z " /><path fill="rgb(0,0,0)" stroke="rgb(0,0,0)" stroke-width="1" opacity="0.7725490196078432" d="M 249.5 409 L 250 412.5 L 249 412.5 L 249.5 409 Z " /><path fill="rgb(0,0,0)" stroke="rgb(0,0,0)" stroke-width="1" opacity="0.7725490196078432" d="M 171.5 413 L 172.5 415 L 171.5 413 Z " /><path fill="rgb(0,0,0)" stroke="rgb(0,0,0)" stroke-width="1" opacity="0.7725490196078432" d="M 218.5 413 L 217.5 415 L 218.5 413 Z " /><path fill="rgb(0,0,0)" stroke="rgb(0,0,0)" stroke-width="1" opacity="0.7725490196078432" d="M 215.5 417 L 213.5 420 L 215.5 417 Z " /><path fill="rgb(0,0,0)" stroke="rgb(0,0,0)" stroke-width="1" opacity="0.7725490196078432" d="M 175.5 418 L 176.5 420 L 175.5 418 Z " /><path fill="rgb(0,0,0)" stroke="rgb(0,0,0)" stroke-width="1" opacity="0.7725490196078432" d="M 211.5 422 L 209.5 425 L 211.5 422 Z " /><path fill="rgb(0,0,0)" stroke="rgb(0,0,0)" stroke-width="1" opacity="0.7725490196078432" d="M 179.5 423 L 180.5 425 L 179.5 423 Z " /><path fill="rgb(0,0,0)" stroke="rgb(0,0,0)" stroke-width="1" opacity="0.7725490196078432" d="M 142.5 425 L 143.5 427 L 142.5 425 Z " /><path fill="rgb(0,0,0)" stroke="rgb(0,0,0)" stroke-width="1" opacity="0.7725490196078432" d="M 247.5 425 L 246.5 427 L 247.5 425 Z " /><path fill="rgb(0,0,0)" stroke="rgb(0,0,0)" stroke-width="1" opacity="0.7725490196078432" d="M 207.5 427 L 205.5 430 L 207.5 427 Z " /><path fill="rgb(0,0,0)" stroke="rgb(0,0,0)" stroke-width="1" opacity="0.7725490196078432" d="M 183.5 428 L 184.5 430 L 183.5 428 Z " /><path fill="rgb(0,0,0)" stroke="rgb(0,0,0)" stroke-width="1" opacity="0.7725490196078432" d="M 145.5 429 L 147.5 432 L 145.5 429 Z " /><path fill="rgb(0,0,0)" stroke="rgb(0,0,0)" stroke-width="1" opacity="0.7725490196078432" d="M 244.5 429 L 243.5 431 L 244.5 429 Z " /><path fill="rgb(0,0,0)" stroke="rgb(0,0,0)" stroke-width="1" opacity="0.7725490196078432" d="M 203.5 432 L 201.5 435 L 203.5 432 Z " /><path fill="rgb(0,0,0)" stroke="rgb(0,0,0)" stroke-width="1" opacity="0.7725490196078432" d="M 187.5 433 L 188.5 435 L 187.5 433 Z " /><path fill="rgb(0,0,0)" stroke="rgb(0,0,0)" stroke-width="1" opacity="0.7725490196078432" d="M 149.5 434 L 151.5 437 L 149.5 434 Z " /><path fill="rgb(0,0,0)" stroke="rgb(0,0,0)" stroke-width="1" opacity="0.7725490196078432" d="M 240.5 434 L 239.5 436 L 240.5 434 Z " /><path fill="rgb(0,0,0)" stroke="rgb(0,0,0)" stroke-width="1" opacity="0.7725490196078432" d="M 199.5 437 L 197.5 440 L 199.5 437 Z " /><path fill="rgb(0,0,0)" stroke="rgb(0,0,0)" stroke-width="1" opacity="0.7725490196078432" d="M 191.5 438 L 192.5 440 L 191.5 438 Z " /><path fill="rgb(0,0,0)" stroke="rgb(0,0,0)" stroke-width="1" opacity="0.7725490196078432" d="M 153.5 439 L 155.5 442 L 153.5 439 Z " /><path fill="rgb(0,0,0)" stroke="rgb(0,0,0)" stroke-width="1" opacity="0.7725490196078432" d="M 236.5 439 L 235.5 441 L 236.5 439 Z " /><path fill="rgb(0,0,0)" stroke="rgb(0,0,0)" stroke-width="1" opacity="0.7725490196078432" d="M 295.5 439 L 296 443.5 L 295 443.5 L 295.5 439 Z " /><path fill="rgb(0,0,0)" stroke="rgb(0,0,0)" stroke-width="1" opacity="0.7725490196078432" d="M 511.5 439 L 512 443.5 L 511 443.5 L 511.5 439 Z " /><path fill="rgb(0,0,0)" stroke="rgb(0,0,0)" stroke-width="1" opacity="0.7725490196078432" d="M 157.5 444 L 159.5 447 L 157.5 444 Z " /><path fill="rgb(0,0,0)" stroke="rgb(0,0,0)" stroke-width="1" opacity="0.7725490196078432" d="M 232.5 444 L 231.5 446 L 232.5 444 Z " /><path fill="rgb(0,0,0)" stroke="rgb(0,0,0)" stroke-width="1" opacity="0.7725490196078432" d="M 265.5 444 L 266 447.5 L 265 447.5 L 265.5 444 Z " /><path fill="rgb(0,0,0)" stroke="rgb(0,0,0)" stroke-width="1" opacity="0.7725490196078432" d="M 161.5 449 L 163.5 452 L 161.5 449 Z " /><path fill="rgb(0,0,0)" stroke="rgb(0,0,0)" stroke-width="1" opacity="0.7725490196078432" d="M 228.5 449 L 227.5 451 L 228.5 449 Z " /><path fill="rgb(0,0,0)" stroke="rgb(0,0,0)" stroke-width="1" opacity="0.7725490196078432" d="M 266.5 451 L 267 453.5 L 266 453.5 L 266.5 451 Z " /><path fill="rgb(0,0,0)" stroke="rgb(0,0,0)" stroke-width="1" opacity="0.7725490196078432" d="M 165.5 454 L 167.5 457 L 165.5 454 Z " /><path fill="rgb(0,0,0)" stroke="rgb(0,0,0)" stroke-width="1" opacity="0.7725490196078432" d="M 224.5 454 L 223.5 456 L 224.5 454 Z " /><path fill="rgb(0,0,0)" stroke="rgb(0,0,0)" stroke-width="1" opacity="0.7725490196078432" d="M 300.5 458 L 301.5 460 L 300.5 458 Z " /><path fill="rgb(0,0,0)" stroke="rgb(0,0,0)" stroke-width="1" opacity="0.7725490196078432" d="M 506.5 458 L 505.5 460 L 506.5 458 Z " /><path fill="rgb(0,0,0)" stroke="rgb(0,0,0)" stroke-width="1" opacity="0.7725490196078432" d="M 169.5 459 L 171.5 462 L 169.5 459 Z " /><path fill="rgb(0,0,0)" stroke="rgb(0,0,0)" stroke-width="1" opacity="0.7725490196078432" d="M 220.5 459 L 218.5 462 L 220.5 459 Z " /><path fill="rgb(0,0,0)" stroke="rgb(0,0,0)" stroke-width="1" opacity="0.7725490196078432" d="M 173.5 464 L 175.5 467 L 173.5 464 Z " /><path fill="rgb(0,0,0)" stroke="rgb(0,0,0)" stroke-width="1" opacity="0.7725490196078432" d="M 216.5 464 L 214.5 467 L 216.5 464 Z " /><path fill="rgb(0,0,0)" stroke="rgb(0,0,0)" stroke-width="1" opacity="0.7725490196078432" d="M 304.5 464 L 307.5 468 L 304.5 464 Z " /><path fill="rgb(0,0,0)" stroke="rgb(0,0,0)" stroke-width="1" opacity="0.7725490196078432" d="M 502.5 464 L 500.5 467 L 502.5 464 Z " /><path fill="rgb(0,0,0)" stroke="rgb(0,0,0)" stroke-width="1" opacity="0.7725490196078432" d="M 177.5 469 L 179.5 472 L 177.5 469 Z " /><path fill="rgb(0,0,0)" stroke="rgb(0,0,0)" stroke-width="1" opacity="0.7725490196078432" d="M 212.5 469 L 211.5 471 L 212.5 469 Z " /><path fill="rgb(0,0,0)" stroke="rgb(0,0,0)" stroke-width="1" opacity="0.7725490196078432" d="M 309.5 469 L 312.5 473 L 309.5 469 Z " /><path fill="rgb(0,0,0)" stroke="rgb(0,0,0)" stroke-width="1" opacity="0.7725490196078432" d="M 496.5 470 L 494.5 473 L 496.5 470 Z " /><path fill="rgb(0,0,0)" stroke="rgb(0,0,0)" stroke-width="1" opacity="0.7725490196078432" d="M 1.5 473 L 2.5 475 L 1.5 473 Z " /><path fill="rgb(0,0,0)" stroke="rgb(0,0,0)" stroke-width="1" opacity="0.7725490196078432" d="M 181.5 474 L 183.5 477 L 181.5 474 Z " /><path fill="rgb(0,0,0)" stroke="rgb(0,0,0)" stroke-width="1" opacity="0.7725490196078432" d="M 208.5 474 L 207.5 476 L 208.5 474 Z " /><path fill="rgb(0,0,0)" stroke="rgb(0,0,0)" stroke-width="1" opacity="0.7725490196078432" d="M 317.5 475 L 318.5 477 L 317.5 475 Z " /><path fill="rgb(0,0,0)" stroke="rgb(0,0,0)" stroke-width="1" opacity="0.7725490196078432" d="M 3.5 476 L 5.5 479 L 3.5 476 Z " /><path fill="rgb(0,0,0)" stroke="rgb(0,0,0)" stroke-width="1" opacity="0.7725490196078432" d="M 276.5 477 L 277.5 479 L 276.5 477 Z " /><path fill="rgb(0,0,0)" stroke="rgb(0,0,0)" stroke-width="1" opacity="0.7725490196078432" d="M 7.5 479 L 8.5 481 L 7.5 479 Z " /><path fill="rgb(0,0,0)" stroke="rgb(0,0,0)" stroke-width="1" opacity="0.7725490196078432" d="M 185.5 479 L 187.5 482 L 185.5 479 Z " /><path fill="rgb(0,0,0)" stroke="rgb(0,0,0)" stroke-width="1" opacity="0.7725490196078432" d="M 204.5 479 L 203.5 481 L 204.5 479 Z " /><path fill="rgb(0,0,0)" stroke="rgb(0,0,0)" stroke-width="1" opacity="0.7725490196078432" d="M 333.5 481 L 338 481.5 L 333.5 482 L 333.5 481 Z " /><path fill="rgb(0,0,0)" stroke="rgb(0,0,0)" stroke-width="1" opacity="0.7725490196078432" d="M 469.5 481 L 474 481.5 L 469.5 482 L 469.5 481 Z " /><path fill="rgb(0,0,0)" stroke="rgb(0,0,0)" stroke-width="1" opacity="1" d="M 191.5 30 L 215.5 32 L 236.5 39 Q 258.6 49.4 273 67.5 Q 283.8 80.7 290 98.5 L 294 115.5 L 295 133.5 L 294 134.5 L 294 144.5 L 292 154.5 L 283 177.5 Q 273 195.5 257.5 208 Q 244.3 218.8 226.5 225 L 209.5 229 L 191.5 230 L 190.5 229 L 180.5 229 L 170.5 227 L 147.5 218 Q 129.4 208 117 192.5 Q 106.2 179.3 100 161.5 L 96 144.5 L 95 125.5 L 96 124.5 L 96 115.5 L 98 105.5 L 107 82.5 Q 116.9 64.4 132.5 52 Q 145.7 41.2 163.5 35 L 180.5 31 L 190.5 31 L 191.5 30 Z " /><path fill="rgb(0,0,0)" stroke="rgb(0,0,0)" stroke-width="1" opacity="1" d="M 381.5 220 L 425.5 220 Q 426.7 222.3 431.5 221 Q 444.2 224.3 451 233.5 Q 456.1 239.9 458 249.5 L 458 280 L 468.5 280 L 469.5 281 L 480.5 282 Q 492.5 286 500 294.5 L 510 311.5 L 511 322.5 L 512 323.5 L 512 335 L 295.5 335 L 295 334.5 L 295 323.5 Q 297.8 321.7 296 315.5 L 299 306.5 L 309.5 292 L 326.5 282 L 337.5 281 L 338.5 280 L 349 280 L 349 249.5 Q 352 235.5 361.5 228 L 369.5 223 L 381.5 220 Z M 382 250 L 379 251 L 378 254 L 378 280 L 429 280 L 429 254 L 428 251 L 426 250 L 382 250 Z " /><path fill="rgb(0,0,0)" stroke="rgb(0,0,0)" stroke-width="1" opacity="1" d="M 116.5 260 L 146.5 260 L 147 263.5 L 154 300.5 L 154 311.5 L 153 312.5 L 153 319.5 L 151 327.5 L 147 364.5 L 146 365.5 L 142 401.5 L 140 409.5 L 140 421.5 L 145 429.5 L 187 481.5 L 13.5 482 Q 6.1 480.9 3 475.5 L 0 468.5 L 0 375.5 L 1 374.5 L 1 364.5 L 3 353.5 L 12 327.5 Q 22.4 306.9 38.5 292 Q 53.7 277.7 74.5 269 L 93.5 263 L 104.5 261 L 115.5 261 L 116.5 260 Z " /><path fill="rgb(0,0,0)" stroke="rgb(0,0,0)" stroke-width="1" opacity="1" d="M 178 260 L 211.5 260 L 212 261.5 L 207 290 L 183.5 290 L 183 286.5 L 178 260 Z " /><path fill="rgb(0,0,0)" stroke="rgb(0,0,0)" stroke-width="1" opacity="1" d="M 243 260 L 273.5 260 L 274.5 261 L 292.5 262 L 296 263.5 L 282 276.5 Q 273.8 285.8 269 298.5 L 265 314.5 L 265 447.5 Q 268.8 468.4 279 482 L 203 481.5 L 248 425.5 Q 252 420.5 250 409.5 L 249 408.5 L 248 394.5 L 247 393.5 L 245 372.5 L 243 364.5 L 243 357.5 L 241 349.5 L 241 342.5 L 239 334.5 L 239 327.5 L 237 319.5 L 236 300.5 L 243 260 Z " /><path fill="rgb(0,0,0)" stroke="rgb(0,0,0)" stroke-width="1" opacity="1" d="M 183 320 L 206.5 320 L 207 320.5 L 207 327.5 L 209 335.5 L 209 342.5 L 210 343.5 L 219 412.5 L 195.5 442 L 193 440.5 L 173 415.5 L 171 410.5 L 172 409.5 L 172 402.5 L 174 394.5 L 174 387.5 L 176 379.5 L 176 372.5 L 178 364.5 L 178 357.5 L 180 349.5 L 183 320 Z " /><path fill="rgb(0,0,0)" stroke="rgb(0,0,0)" stroke-width="1" opacity="1" d="M 295 365 L 512 365 L 512 438.5 Q 509.2 440.3 511 446.5 L 508 455.5 L 497.5 470 L 485.5 478 L 476.5 481 Q 470.3 479.3 468.5 482 L 338.5 482 Q 336.7 479.3 330.5 481 L 321.5 478 L 308 469 L 300 457.5 L 296 446.5 Q 297.8 440.3 295 438.5 L 295 365 Z " /></svg>