<svg width="512" height="512" version="1.1" xmlns="http://www.w3.org/2000/svg" desc="Created with imagetracer.js version 1.2.6" ><path fill="rgb(0,0,0)" stroke="rgb(0,0,0)" stroke-width="1" opacity="0.7568627450980392" d="M 160.5 43 L 163 43.5 L 160.5 44 L 160.5 43 Z " /><path fill="rgb(0,0,0)" stroke="rgb(0,0,0)" stroke-width="1" opacity="0.7568627450980392" d="M 178.5 43 L 182 43.5 L 178.5 44 L 178.5 43 Z " /><path fill="rgb(0,0,0)" stroke="rgb(0,0,0)" stroke-width="1" opacity="0.7568627450980392" d="M 201.5 50 L 202.5 52 L 201.5 50 Z " /><path fill="rgb(0,0,0)" stroke="rgb(0,0,0)" stroke-width="1" opacity="0.7568627450980392" d="M 207.5 54 L 208.5 56 L 207.5 54 Z " /><path fill="rgb(0,0,0)" stroke="rgb(0,0,0)" stroke-width="1" opacity="0.7568627450980392" d="M 132.5 55 L 131.5 57 L 132.5 55 Z " /><path fill="rgb(0,0,0)" stroke="rgb(0,0,0)" stroke-width="1" opacity="0.7568627450980392" d="M 210.5 56 L 220.5 67 L 210.5 56 Z " /><path fill="rgb(0,0,0)" stroke="rgb(0,0,0)" stroke-width="1" opacity="0.7568627450980392" d="M 127.5 59 L 123.5 64 L 127.5 59 Z " /><path fill="rgb(0,0,0)" stroke="rgb(0,0,0)" stroke-width="1" opacity="0.7568627450980392" d="M 120.5 67 L 119.5 69 L 120.5 67 Z " /><path fill="rgb(0,0,0)" stroke="rgb(0,0,0)" stroke-width="1" opacity="0.7568627450980392" d="M 222.5 69 L 223.5 71 L 222.5 69 Z " /><path fill="rgb(0,0,0)" stroke="rgb(0,0,0)" stroke-width="1" opacity="0.7568627450980392" d="M 117.5 71 L 116.5 73 L 117.5 71 Z " /><path fill="rgb(0,0,0)" stroke="rgb(0,0,0)" stroke-width="1" opacity="0.7568627450980392" d="M 335.5 85 L 347 85.5 L 335.5 86 L 335.5 85 Z " /><path fill="rgb(0,0,0)" stroke="rgb(0,0,0)" stroke-width="1" opacity="0.7568627450980392" d="M 328.5 86 L 331 86.5 L 328.5 87 L 328.5 86 Z " /><path fill="rgb(0,0,0)" stroke="rgb(0,0,0)" stroke-width="1" opacity="0.7568627450980392" d="M 351.5 86 L 354 86.5 L 351.5 87 L 351.5 86 Z " /><path fill="rgb(0,0,0)" stroke="rgb(0,0,0)" stroke-width="1" opacity="0.7568627450980392" d="M 233.5 94 L 234 96.5 L 233 96.5 L 233.5 94 Z " /><path fill="rgb(0,0,0)" stroke="rgb(0,0,0)" stroke-width="1" opacity="0.7568627450980392" d="M 308.5 94 L 307.5 96 L 308.5 94 Z " /><path fill="rgb(0,0,0)" stroke="rgb(0,0,0)" stroke-width="1" opacity="0.7568627450980392" d="M 107.5 96 L 108 98.5 L 107 98.5 L 107.5 96 Z " /><path fill="rgb(0,0,0)" stroke="rgb(0,0,0)" stroke-width="1" opacity="0.7568627450980392" d="M 305.5 96 L 304.5 98 L 305.5 96 Z " /><path fill="rgb(0,0,0)" stroke="rgb(0,0,0)" stroke-width="1" opacity="0.7568627450980392" d="M 377.5 96 L 378.5 98 L 377.5 96 Z " /><path fill="rgb(0,0,0)" stroke="rgb(0,0,0)" stroke-width="1" opacity="0.7568627450980392" d="M 302.5 98 L 300.5 101 L 302.5 98 Z " /><path fill="rgb(0,0,0)" stroke="rgb(0,0,0)" stroke-width="1" opacity="0.7568627450980392" d="M 381.5 99 L 390.5 109 L 381.5 99 Z " /><path fill="rgb(0,0,0)" stroke="rgb(0,0,0)" stroke-width="1" opacity="0.7568627450980392" d="M 234.5 101 L 235 111.5 L 234 111.5 L 234.5 101 Z " /><path fill="rgb(0,0,0)" stroke="rgb(0,0,0)" stroke-width="1" opacity="0.7568627450980392" d="M 292.5 108 L 290.5 111 L 292.5 108 Z " /><path fill="rgb(0,0,0)" stroke="rgb(0,0,0)" stroke-width="1" opacity="0.7568627450980392" d="M 392.5 111 L 393.5 113 L 392.5 111 Z " /><path fill="rgb(0,0,0)" stroke="rgb(0,0,0)" stroke-width="1" opacity="0.7568627450980392" d="M 289.5 112 L 288.5 114 L 289.5 112 Z " /><path fill="rgb(0,0,0)" stroke="rgb(0,0,0)" stroke-width="1" opacity="0.7568627450980392" d="M 107.5 114 L 108 117.5 L 107 117.5 L 107.5 114 Z " /><path fill="rgb(0,0,0)" stroke="rgb(0,0,0)" stroke-width="1" opacity="0.7568627450980392" d="M 287.5 115 L 286.5 117 L 287.5 115 Z " /><path fill="rgb(0,0,0)" stroke="rgb(0,0,0)" stroke-width="1" opacity="0.7568627450980392" d="M 396.5 117 L 397.5 119 L 396.5 117 Z " /><path fill="rgb(0,0,0)" stroke="rgb(0,0,0)" stroke-width="1" opacity="0.7568627450980392" d="M 404.5 138 L 405 141.5 L 404 141.5 L 404.5 138 Z " /><path fill="rgb(0,0,0)" stroke="rgb(0,0,0)" stroke-width="1" opacity="0.7568627450980392" d="M 118.5 143 L 119.5 145 L 118.5 143 Z " /><path fill="rgb(0,0,0)" stroke="rgb(0,0,0)" stroke-width="1" opacity="0.7568627450980392" d="M 277.5 143 L 278 154.5 L 277 154.5 L 277.5 143 Z " /><path fill="rgb(0,0,0)" stroke="rgb(0,0,0)" stroke-width="1" opacity="0.7568627450980392" d="M 221.5 145 L 219.5 148 L 221.5 145 Z " /><path fill="rgb(0,0,0)" stroke="rgb(0,0,0)" stroke-width="1" opacity="0.7568627450980392" d="M 121.5 147 L 130.5 157 L 121.5 147 Z " /><path fill="rgb(0,0,0)" stroke="rgb(0,0,0)" stroke-width="1" opacity="0.7568627450980392" d="M 211.5 155 L 209.5 158 L 211.5 155 Z " /><path fill="rgb(0,0,0)" stroke="rgb(0,0,0)" stroke-width="1" opacity="0.7568627450980392" d="M 404.5 156 L 405 159.5 L 404 159.5 L 404.5 156 Z " /><path fill="rgb(0,0,0)" stroke="rgb(0,0,0)" stroke-width="1" opacity="0.7568627450980392" d="M 133.5 158 L 134.5 160 L 133.5 158 Z " /><path fill="rgb(0,0,0)" stroke="rgb(0,0,0)" stroke-width="1" opacity="0.7568627450980392" d="M 278.5 159 L 279 161.5 L 278 161.5 L 278.5 159 Z " /><path fill="rgb(0,0,0)" stroke="rgb(0,0,0)" stroke-width="1" opacity="0.7568627450980392" d="M 148.5 166 L 150 167.5 L 150 344.5 L 148 345.5 L 149 344.5 L 149 167.5 L 148.5 166 Z " /><path fill="rgb(0,0,0)" stroke="rgb(0,0,0)" stroke-width="1" opacity="0.7568627450980392" d="M 286.5 182 L 287.5 184 L 286.5 182 Z " /><path fill="rgb(0,0,0)" stroke="rgb(0,0,0)" stroke-width="1" opacity="0.7568627450980392" d="M 395.5 183 L 394.5 185 L 395.5 183 Z " /><path fill="rgb(0,0,0)" stroke="rgb(0,0,0)" stroke-width="1" opacity="0.7568627450980392" d="M 288.5 185 L 289.5 187 L 288.5 185 Z " /><path fill="rgb(0,0,0)" stroke="rgb(0,0,0)" stroke-width="1" opacity="0.7568627450980392" d="M 393.5 186 L 391.5 189 L 393.5 186 Z " /><path fill="rgb(0,0,0)" stroke="rgb(0,0,0)" stroke-width="1" opacity="0.7568627450980392" d="M 291.5 189 L 300.5 199 L 291.5 189 Z " /><path fill="rgb(0,0,0)" stroke="rgb(0,0,0)" stroke-width="1" opacity="0.7568627450980392" d="M 389.5 191 L 383.5 198 L 389.5 191 Z " /><path fill="rgb(0,0,0)" stroke="rgb(0,0,0)" stroke-width="1" opacity="0.7568627450980392" d="M 380.5 199 L 378.5 202 L 380.5 199 Z " /><path fill="rgb(0,0,0)" stroke="rgb(0,0,0)" stroke-width="1" opacity="0.7568627450980392" d="M 303.5 200 L 304.5 202 L 303.5 200 Z " /><path fill="rgb(0,0,0)" stroke="rgb(0,0,0)" stroke-width="1" opacity="0.7568627450980392" d="M 376.5 202 L 375.5 204 L 376.5 202 Z " /><path fill="rgb(0,0,0)" stroke="rgb(0,0,0)" stroke-width="1" opacity="0.7568627450980392" d="M 309.5 204 L 310.5 206 L 309.5 204 Z " /><path fill="rgb(0,0,0)" stroke="rgb(0,0,0)" stroke-width="1" opacity="0.7568627450980392" d="M 362.5 209 L 363 240.5 L 362 240.5 L 362.5 209 Z " /><path fill="rgb(0,0,0)" stroke="rgb(0,0,0)" stroke-width="1" opacity="0.7568627450980392" d="M 319.5 240 L 320 242.5 L 319 242.5 L 319.5 240 Z " /><path fill="rgb(0,0,0)" stroke="rgb(0,0,0)" stroke-width="1" opacity="0.7568627450980392" d="M 361.5 246 L 362 248.5 L 361 248.5 L 361.5 246 Z " /><path fill="rgb(0,0,0)" stroke="rgb(0,0,0)" stroke-width="1" opacity="0.7568627450980392" d="M 315.5 253 L 316 254.5 L 314 255.5 L 315.5 253 Z " /><path fill="rgb(0,0,0)" stroke="rgb(0,0,0)" stroke-width="1" opacity="0.7568627450980392" d="M 311.5 260 L 310.5 262 L 311.5 260 Z " /><path fill="rgb(0,0,0)" stroke="rgb(0,0,0)" stroke-width="1" opacity="0.7568627450980392" d="M 304.5 267 L 302.5 270 L 304.5 267 Z " /><path fill="rgb(0,0,0)" stroke="rgb(0,0,0)" stroke-width="1" opacity="0.7568627450980392" d="M 192.5 277 L 281 277.5 L 192.5 278 L 192.5 277 Z " /><path fill="rgb(0,0,0)" stroke="rgb(0,0,0)" stroke-width="1" opacity="0.7568627450980392" d="M 346.5 284 L 345.5 286 L 346.5 284 Z " /><path fill="rgb(0,0,0)" stroke="rgb(0,0,0)" stroke-width="1" opacity="0.7568627450980392" d="M 343.5 288 L 340.5 292 L 343.5 288 Z " /><path fill="rgb(0,0,0)" stroke="rgb(0,0,0)" stroke-width="1" opacity="0.7568627450980392" d="M 333.5 298 L 330.5 302 L 333.5 298 Z " /><path fill="rgb(0,0,0)" stroke="rgb(0,0,0)" stroke-width="1" opacity="0.7568627450980392" d="M 327.5 303 L 326.5 305 L 327.5 303 Z " /><path fill="rgb(0,0,0)" stroke="rgb(0,0,0)" stroke-width="1" opacity="0.7568627450980392" d="M 324.5 305 L 323.5 307 L 324.5 305 Z " /><path fill="rgb(0,0,0)" stroke="rgb(0,0,0)" stroke-width="1" opacity="0.7568627450980392" d="M 319.5 308 L 318.5 310 L 319.5 308 Z " /><path fill="rgb(0,0,0)" stroke="rgb(0,0,0)" stroke-width="1" opacity="0.7568627450980392" d="M 291.5 318 L 294 318.5 L 291.5 319 L 291.5 318 Z " /><path fill="rgb(0,0,0)" stroke="rgb(0,0,0)" stroke-width="1" opacity="0.7568627450980392" d="M 281.5 319 L 287 319.5 L 281.5 320 L 281.5 319 Z " /><path fill="rgb(0,0,0)" stroke="rgb(0,0,0)" stroke-width="1" opacity="0.7568627450980392" d="M 134.5 352 L 133.5 354 L 134.5 352 Z " /><path fill="rgb(0,0,0)" stroke="rgb(0,0,0)" stroke-width="1" opacity="0.7568627450980392" d="M 209.5 354 L 211.5 357 L 209.5 354 Z " /><path fill="rgb(0,0,0)" stroke="rgb(0,0,0)" stroke-width="1" opacity="0.7568627450980392" d="M 130.5 355 L 121.5 365 L 130.5 355 Z " /><path fill="rgb(0,0,0)" stroke="rgb(0,0,0)" stroke-width="1" opacity="0.7568627450980392" d="M 219.5 364 L 221.5 367 L 219.5 364 Z " /><path fill="rgb(0,0,0)" stroke="rgb(0,0,0)" stroke-width="1" opacity="0.7568627450980392" d="M 119.5 367 L 118.5 369 L 119.5 367 Z " /><path fill="rgb(0,0,0)" stroke="rgb(0,0,0)" stroke-width="1" opacity="0.7568627450980392" d="M 115.5 373 L 114.5 375 L 115.5 373 Z " /><path fill="rgb(0,0,0)" stroke="rgb(0,0,0)" stroke-width="1" opacity="0.7568627450980392" d="M 107.5 394 L 108 397.5 L 107 397.5 L 107.5 394 Z " /><path fill="rgb(0,0,0)" stroke="rgb(0,0,0)" stroke-width="1" opacity="0.7568627450980392" d="M 234.5 400 L 235 410.5 L 234 410.5 L 234.5 400 Z " /><path fill="rgb(0,0,0)" stroke="rgb(0,0,0)" stroke-width="1" opacity="0.7568627450980392" d="M 107.5 413 L 108 415.5 L 107 415.5 L 107.5 413 Z " /><path fill="rgb(0,0,0)" stroke="rgb(0,0,0)" stroke-width="1" opacity="0.7568627450980392" d="M 233.5 415 L 234 417.5 L 233 417.5 L 233.5 415 Z " /><path fill="rgb(0,0,0)" stroke="rgb(0,0,0)" stroke-width="1" opacity="0.7568627450980392" d="M 116.5 439 L 117.5 441 L 116.5 439 Z " /><path fill="rgb(0,0,0)" stroke="rgb(0,0,0)" stroke-width="1" opacity="0.7568627450980392" d="M 223.5 441 L 221.5 444 L 223.5 441 Z " /><path fill="rgb(0,0,0)" stroke="rgb(0,0,0)" stroke-width="1" opacity="0.7568627450980392" d="M 118.5 442 L 120.5 445 L 118.5 442 Z " /><path fill="rgb(0,0,0)" stroke="rgb(0,0,0)" stroke-width="1" opacity="0.7568627450980392" d="M 220.5 445 L 211.5 455 L 220.5 445 Z " /><path fill="rgb(0,0,0)" stroke="rgb(0,0,0)" stroke-width="1" opacity="0.7568627450980392" d="M 123.5 448 L 127.5 453 L 123.5 448 Z " /><path fill="rgb(0,0,0)" stroke="rgb(0,0,0)" stroke-width="1" opacity="0.7568627450980392" d="M 131.5 455 L 132.5 457 L 131.5 455 Z " /><path fill="rgb(0,0,0)" stroke="rgb(0,0,0)" stroke-width="1" opacity="0.7568627450980392" d="M 208.5 456 L 207.5 458 L 208.5 456 Z " /><path fill="rgb(0,0,0)" stroke="rgb(0,0,0)" stroke-width="1" opacity="0.7568627450980392" d="M 202.5 460 L 201.5 462 L 202.5 460 Z " /><path fill="rgb(0,0,0)" stroke="rgb(0,0,0)" stroke-width="1" opacity="0.7568627450980392" d="M 160.5 468 L 163 468.5 L 160.5 469 L 160.5 468 Z " /><path fill="rgb(0,0,0)" stroke="rgb(0,0,0)" stroke-width="1" opacity="0.7568627450980392" d="M 178.5 468 L 182 468.5 L 178.5 469 L 178.5 468 Z " /><path fill="rgb(0,0,0)" stroke="rgb(0,0,0)" stroke-width="1" opacity="0" d="M 0 0 L 512 0 L 512 512 L 0 512 L 0 0 Z M 161 43 L 149 46 Q 137 51 128 59 Q 112 72 107 97 L 107 118 L 109 126 Q 113 138 121 148 Q 131 160 148 166 L 149 168 L 149 345 L 131 355 Q 112 368 107 395 L 107 416 L 109 425 Q 114 439 123 449 Q 137 464 161 469 L 182 469 L 190 467 Q 203 463 212 455 Q 221 447 227 437 L 232 426 L 235 411 L 235 401 L 232 386 L 222 367 Q 211 352 194 345 L 192 345 L 192 320 L 287 320 L 302 317 L 313 313 L 331 302 Q 348 288 357 267 L 361 254 L 362 242 L 363 241 L 363 209 Q 375 206 384 198 Q 400 184 405 160 L 405 139 L 403 131 Q 399 118 391 109 Q 383 99 373 93 L 362 88 L 347 85 L 336 85 L 325 87 L 303 98 Q 293 106 286 117 L 279 133 L 277 144 L 277 155 L 280 170 Q 284 181 291 190 Q 302 203 320 211 L 320 240 L 318 249 L 310 263 Q 301 274 285 277 L 192 277 L 192 167 L 210 158 Q 220 151 226 140 L 232 127 L 235 112 L 235 102 L 232 87 L 221 67 Q 210 53 193 46 L 182 43 L 161 43 Z " /><path fill="rgb(0,0,0)" stroke="rgb(0,0,0)" stroke-width="1" opacity="1" d="M 163.5 43 L 183.5 44 L 198.5 49 Q 212.6 56.4 222 68.5 Q 236 84.5 234 116.5 Q 229 141.5 212.5 155 Q 204.2 162.9 192 166 L 192 278 L 280.5 278 L 290.5 276 L 297.5 273 L 312 260.5 Q 317.9 253.4 320 242.5 L 320 209 Q 300.9 203 290 187.5 Q 276 171.5 278 139.5 Q 283.3 114.8 299.5 101 Q 310.5 91.5 326.5 87 L 331.5 86 L 350.5 86 Q 378.3 91.2 392 110.5 Q 399.5 119.5 403 132.5 L 405 142.5 L 405 155.5 L 403 166.5 L 396 182.5 L 381.5 199 Q 373.4 206.1 362 209 L 362 245.5 L 359 259.5 Q 351.3 283.3 334.5 298 Q 317.9 313.9 290.5 319 L 281.5 319 L 280.5 320 L 192 320 L 192 345.5 L 194.5 346 Q 209.4 352.1 219 363.5 Q 228.7 374.3 233 390.5 L 234 395.5 L 234 414.5 Q 228.8 442.3 209.5 456 Q 200.5 463.5 187.5 467 L 177.5 469 L 163.5 469 Q 135.3 464.2 121 445.5 Q 113 436 109 422.5 L 107 412.5 L 107 398.5 L 109 388.5 L 114 375.5 Q 121.3 362.8 132.5 354 L 150 344.5 L 150 167.5 L 148.5 166 Q 130.2 159.8 120 145.5 Q 112.5 136.5 109 123.5 L 107 113.5 L 107 99.5 Q 111.8 71.3 130.5 57 L 147.5 47 L 163.5 43 Z " /></svg>