<svg width="512" height="512" version="1.1" xmlns="http://www.w3.org/2000/svg" desc="Created with imagetracer.js version 1.2.6" ><path fill="rgb(0,0,0)" stroke="rgb(0,0,0)" stroke-width="1" opacity="0" d="M 0 0 L 512 0 L 512 512 L 0 512 L 0 0 Z M 124 32 L 112 38 L 110 41 L 108 43 L 141 76 L 143 79 L 154 88 L 217 88 L 220 83 L 236 69 L 247 65 Q 253 67 255 64 L 266 65 Q 276 67 283 73 L 296 88 L 359 88 L 362 86 L 403 42 L 402 39 L 397 35 L 389 32 L 124 32 Z M 408 60 L 384 86 L 370 100 L 360 104 L 300 104 Q 300 127 288 139 L 286 140 L 282 145 L 287 148 L 297 164 L 300 176 Q 300 199 288 211 Q 278 221 262 224 Q 237 225 226 212 Q 215 202 212 186 Q 211 160 225 150 Q 224 147 227 148 L 230 144 L 226 140 Q 212 128 212 104 L 153 104 L 142 99 L 104 63 L 104 461 L 107 469 Q 113 477 124 480 L 389 480 L 397 477 Q 405 472 408 461 L 408 60 Z M 252 80 L 240 85 Q 230 91 228 104 L 228 113 L 233 125 Q 237 132 247 134 L 248 136 L 248 153 L 240 157 Q 231 163 228 175 L 228 186 L 233 197 Q 239 205 251 208 L 262 208 L 273 203 Q 281 197 284 186 L 284 175 L 279 164 Q 275 156 266 154 L 264 153 L 264 136 L 273 131 Q 281 125 284 114 L 284 104 L 279 92 Q 272 79 252 80 Z " /><path fill="rgb(0,0,0)" stroke="rgb(0,0,0)" stroke-width="1" opacity="0" d="M 286.5 376 L 353.5 376 L 358 378 L 360 385.5 L 358 390 L 353.5 392 L 286.5 392 L 282 390 L 280 382.5 L 282 378 L 286.5 376 Z " /><path fill="rgb(0,0,0)" stroke="rgb(0,0,0)" stroke-width="1" opacity="0" d="M 314.5 413 L 355.5 413 L 359 416.5 L 360 422.5 L 355.5 428 L 314.5 428 L 311 425.5 L 310 417.5 L 312.5 414 L 314.5 413 Z " /><path fill="rgb(0,0,0)" stroke="rgb(0,0,0)" stroke-width="1" opacity="0.796078431372549" d="M 123.5 32 L 126 32.5 L 123.5 33 L 123.5 32 Z " /><path fill="rgb(0,0,0)" stroke="rgb(0,0,0)" stroke-width="1" opacity="0.796078431372549" d="M 386.5 32 L 389 32.5 L 386.5 33 L 386.5 32 Z " /><path fill="rgb(0,0,0)" stroke="rgb(0,0,0)" stroke-width="1" opacity="0.796078431372549" d="M 115.5 35 L 114.5 37 L 115.5 35 Z " /><path fill="rgb(0,0,0)" stroke="rgb(0,0,0)" stroke-width="1" opacity="0.796078431372549" d="M 396.5 35 L 397.5 37 L 396.5 35 Z " /><path fill="rgb(0,0,0)" stroke="rgb(0,0,0)" stroke-width="1" opacity="0.796078431372549" d="M 111.5 38 L 110.5 40 L 111.5 38 Z " /><path fill="rgb(0,0,0)" stroke="rgb(0,0,0)" stroke-width="1" opacity="0.796078431372549" d="M 108.5 42 L 122.5 57 L 108.5 42 Z " /><path fill="rgb(0,0,0)" stroke="rgb(0,0,0)" stroke-width="1" opacity="0.796078431372549" d="M 401.5 43 L 389.5 56 L 401.5 43 Z " /><path fill="rgb(0,0,0)" stroke="rgb(0,0,0)" stroke-width="1" opacity="0.796078431372549" d="M 407.5 60 L 402.5 66 L 407.5 60 Z " /><path fill="rgb(0,0,0)" stroke="rgb(0,0,0)" stroke-width="1" opacity="0.796078431372549" d="M 382.5 63 L 371.5 75 L 382.5 63 Z " /><path fill="rgb(0,0,0)" stroke="rgb(0,0,0)" stroke-width="1" opacity="0.796078431372549" d="M 249.5 64 L 254 64.5 L 249.5 65 L 249.5 64 Z " /><path fill="rgb(0,0,0)" stroke="rgb(0,0,0)" stroke-width="1" opacity="0.796078431372549" d="M 258.5 64 L 263 64.5 L 258.5 65 L 258.5 64 Z " /><path fill="rgb(0,0,0)" stroke="rgb(0,0,0)" stroke-width="1" opacity="0.796078431372549" d="M 238.5 67 L 240 67.5 L 236.5 69 L 236.5 68 L 238.5 67 Z " /><path fill="rgb(0,0,0)" stroke="rgb(0,0,0)" stroke-width="1" opacity="0.796078431372549" d="M 234.5 69 L 233.5 71 L 234.5 69 Z " /><path fill="rgb(0,0,0)" stroke="rgb(0,0,0)" stroke-width="1" opacity="0.796078431372549" d="M 277.5 69 L 278.5 71 L 277.5 69 Z " /><path fill="rgb(0,0,0)" stroke="rgb(0,0,0)" stroke-width="1" opacity="0.796078431372549" d="M 231.5 71 L 230.5 73 L 231.5 71 Z " /><path fill="rgb(0,0,0)" stroke="rgb(0,0,0)" stroke-width="1" opacity="0.796078431372549" d="M 280.5 71 L 281.5 73 L 280.5 71 Z " /><path fill="rgb(0,0,0)" stroke="rgb(0,0,0)" stroke-width="1" opacity="0.796078431372549" d="M 228.5 73 L 221.5 81 L 228.5 73 Z " /><path fill="rgb(0,0,0)" stroke="rgb(0,0,0)" stroke-width="1" opacity="0.796078431372549" d="M 283.5 73 L 290.5 81 L 283.5 73 Z " /><path fill="rgb(0,0,0)" stroke="rgb(0,0,0)" stroke-width="1" opacity="0.796078431372549" d="M 395.5 73 L 384.5 85 L 395.5 73 Z " /><path fill="rgb(0,0,0)" stroke="rgb(0,0,0)" stroke-width="1" opacity="0.796078431372549" d="M 143.5 78 L 150.5 86 L 143.5 78 Z " /><path fill="rgb(0,0,0)" stroke="rgb(0,0,0)" stroke-width="1" opacity="0.796078431372549" d="M 251.5 80 L 255 80.5 L 251.5 81 L 251.5 80 Z " /><path fill="rgb(0,0,0)" stroke="rgb(0,0,0)" stroke-width="1" opacity="0.796078431372549" d="M 258.5 80 L 262 80.5 L 258.5 81 L 258.5 80 Z " /><path fill="rgb(0,0,0)" stroke="rgb(0,0,0)" stroke-width="1" opacity="0.796078431372549" d="M 219.5 83 L 218.5 85 L 219.5 83 Z " /><path fill="rgb(0,0,0)" stroke="rgb(0,0,0)" stroke-width="1" opacity="0.796078431372549" d="M 242.5 83 L 241.5 85 L 242.5 83 Z " /><path fill="rgb(0,0,0)" stroke="rgb(0,0,0)" stroke-width="1" opacity="0.796078431372549" d="M 269.5 83 L 270.5 85 L 269.5 83 Z " /><path fill="rgb(0,0,0)" stroke="rgb(0,0,0)" stroke-width="1" opacity="0.796078431372549" d="M 292.5 83 L 293.5 85 L 292.5 83 Z " /><path fill="rgb(0,0,0)" stroke="rgb(0,0,0)" stroke-width="1" opacity="0.796078431372549" d="M 363.5 83 L 361.5 86 L 363.5 83 Z " /><path fill="rgb(0,0,0)" stroke="rgb(0,0,0)" stroke-width="1" opacity="0.796078431372549" d="M 239.5 85 L 233.5 92 L 239.5 85 Z " /><path fill="rgb(0,0,0)" stroke="rgb(0,0,0)" stroke-width="1" opacity="0.796078431372549" d="M 272.5 85 L 278.5 92 L 272.5 85 Z " /><path fill="rgb(0,0,0)" stroke="rgb(0,0,0)" stroke-width="1" opacity="0.796078431372549" d="M 128.5 86 L 140.5 99 L 128.5 86 Z " /><path fill="rgb(0,0,0)" stroke="rgb(0,0,0)" stroke-width="1" opacity="0.796078431372549" d="M 377.5 92 L 371.5 99 L 377.5 92 Z " /><path fill="rgb(0,0,0)" stroke="rgb(0,0,0)" stroke-width="1" opacity="0.796078431372549" d="M 232.5 93 L 232 94.5 L 230.5 98 L 230 96.5 L 232.5 93 Z " /><path fill="rgb(0,0,0)" stroke="rgb(0,0,0)" stroke-width="1" opacity="0.796078431372549" d="M 279.5 93 L 280.5 95 L 279.5 93 Z " /><path fill="rgb(0,0,0)" stroke="rgb(0,0,0)" stroke-width="1" opacity="0.796078431372549" d="M 142.5 99 L 143.5 101 L 142.5 99 Z " /><path fill="rgb(0,0,0)" stroke="rgb(0,0,0)" stroke-width="1" opacity="0.796078431372549" d="M 228.5 103 L 229 107.5 L 228 107.5 L 228.5 103 Z " /><path fill="rgb(0,0,0)" stroke="rgb(0,0,0)" stroke-width="1" opacity="0.796078431372549" d="M 283.5 103 L 284 106.5 L 283 106.5 L 283.5 103 Z " /><path fill="rgb(0,0,0)" stroke="rgb(0,0,0)" stroke-width="1" opacity="0.796078431372549" d="M 228.5 109 L 229 112.5 L 228 112.5 L 228.5 109 Z " /><path fill="rgb(0,0,0)" stroke="rgb(0,0,0)" stroke-width="1" opacity="0.796078431372549" d="M 283.5 110 L 284 113.5 L 283 113.5 L 283.5 110 Z " /><path fill="rgb(0,0,0)" stroke="rgb(0,0,0)" stroke-width="1" opacity="0.796078431372549" d="M 299.5 113 L 300 116.5 L 299 116.5 L 299.5 113 Z " /><path fill="rgb(0,0,0)" stroke="rgb(0,0,0)" stroke-width="1" opacity="0.796078431372549" d="M 212.5 114 L 213 116.5 L 212 116.5 L 212.5 114 Z " /><path fill="rgb(0,0,0)" stroke="rgb(0,0,0)" stroke-width="1" opacity="0.796078431372549" d="M 231.5 121 L 232.5 123 L 231.5 121 Z " /><path fill="rgb(0,0,0)" stroke="rgb(0,0,0)" stroke-width="1" opacity="0.796078431372549" d="M 280.5 121 L 279.5 123 L 280.5 121 Z " /><path fill="rgb(0,0,0)" stroke="rgb(0,0,0)" stroke-width="1" opacity="0.796078431372549" d="M 233.5 124 L 239.5 131 L 233.5 124 Z " /><path fill="rgb(0,0,0)" stroke="rgb(0,0,0)" stroke-width="1" opacity="0.796078431372549" d="M 278.5 124 L 272.5 131 L 278.5 124 Z " /><path fill="rgb(0,0,0)" stroke="rgb(0,0,0)" stroke-width="1" opacity="0.796078431372549" d="M 218.5 131 L 219.5 133 L 218.5 131 Z " /><path fill="rgb(0,0,0)" stroke="rgb(0,0,0)" stroke-width="1" opacity="0.796078431372549" d="M 241.5 131 L 242.5 133 L 241.5 131 Z " /><path fill="rgb(0,0,0)" stroke="rgb(0,0,0)" stroke-width="1" opacity="0.796078431372549" d="M 270.5 131 L 269.5 133 L 270.5 131 Z " /><path fill="rgb(0,0,0)" stroke="rgb(0,0,0)" stroke-width="1" opacity="0.796078431372549" d="M 293.5 131 L 292.5 133 L 293.5 131 Z " /><path fill="rgb(0,0,0)" stroke="rgb(0,0,0)" stroke-width="1" opacity="0.796078431372549" d="M 220.5 134 L 223.5 138 L 220.5 134 Z " /><path fill="rgb(0,0,0)" stroke="rgb(0,0,0)" stroke-width="1" opacity="0.796078431372549" d="M 291.5 134 L 288.5 138 L 291.5 134 Z " /><path fill="rgb(0,0,0)" stroke="rgb(0,0,0)" stroke-width="1" opacity="0.796078431372549" d="M 226.5 140 L 229.5 144 L 226.5 140 Z " /><path fill="rgb(0,0,0)" stroke="rgb(0,0,0)" stroke-width="1" opacity="0.796078431372549" d="M 285.5 140 L 283 143.5 L 286 147.5 L 282 144.5 L 285.5 140 Z " /><path fill="rgb(0,0,0)" stroke="rgb(0,0,0)" stroke-width="1" opacity="0.796078431372549" d="M 228.5 145 L 226.5 148 L 228.5 145 Z " /><path fill="rgb(0,0,0)" stroke="rgb(0,0,0)" stroke-width="1" opacity="0.796078431372549" d="M 224.5 149 L 220.5 154 L 224.5 149 Z " /><path fill="rgb(0,0,0)" stroke="rgb(0,0,0)" stroke-width="1" opacity="0.796078431372549" d="M 288.5 150 L 291.5 154 L 288.5 150 Z " /><path fill="rgb(0,0,0)" stroke="rgb(0,0,0)" stroke-width="1" opacity="0.796078431372549" d="M 219.5 155 L 218.5 157 L 219.5 155 Z " /><path fill="rgb(0,0,0)" stroke="rgb(0,0,0)" stroke-width="1" opacity="0.796078431372549" d="M 242.5 155 L 241.5 157 L 242.5 155 Z " /><path fill="rgb(0,0,0)" stroke="rgb(0,0,0)" stroke-width="1" opacity="0.796078431372549" d="M 269.5 155 L 270.5 157 L 269.5 155 Z " /><path fill="rgb(0,0,0)" stroke="rgb(0,0,0)" stroke-width="1" opacity="0.796078431372549" d="M 292.5 155 L 293.5 157 L 292.5 155 Z " /><path fill="rgb(0,0,0)" stroke="rgb(0,0,0)" stroke-width="1" opacity="0.796078431372549" d="M 239.5 157 L 233.5 164 L 239.5 157 Z " /><path fill="rgb(0,0,0)" stroke="rgb(0,0,0)" stroke-width="1" opacity="0.796078431372549" d="M 272.5 157 L 274.5 160 L 272.5 157 Z " /><path fill="rgb(0,0,0)" stroke="rgb(0,0,0)" stroke-width="1" opacity="0.796078431372549" d="M 276.5 161 L 278.5 164 L 276.5 161 Z " /><path fill="rgb(0,0,0)" stroke="rgb(0,0,0)" stroke-width="1" opacity="0.796078431372549" d="M 232.5 165 L 231.5 167 L 232.5 165 Z " /><path fill="rgb(0,0,0)" stroke="rgb(0,0,0)" stroke-width="1" opacity="0.796078431372549" d="M 279.5 165 L 280.5 167 L 279.5 165 Z " /><path fill="rgb(0,0,0)" stroke="rgb(0,0,0)" stroke-width="1" opacity="0.796078431372549" d="M 212.5 171 L 213 174.5 L 212 174.5 L 212.5 171 Z " /><path fill="rgb(0,0,0)" stroke="rgb(0,0,0)" stroke-width="1" opacity="0.796078431372549" d="M 299.5 171 L 300 174.5 L 299 174.5 L 299.5 171 Z " /><path fill="rgb(0,0,0)" stroke="rgb(0,0,0)" stroke-width="1" opacity="0.796078431372549" d="M 228.5 174 L 229 177.5 L 228 177.5 L 228.5 174 Z " /><path fill="rgb(0,0,0)" stroke="rgb(0,0,0)" stroke-width="1" opacity="0.796078431372549" d="M 283.5 174 L 284 177.5 L 283 177.5 L 283.5 174 Z " /><path fill="rgb(0,0,0)" stroke="rgb(0,0,0)" stroke-width="1" opacity="0.796078431372549" d="M 228.5 182 L 229 185.5 L 228 185.5 L 228.5 182 Z " /><path fill="rgb(0,0,0)" stroke="rgb(0,0,0)" stroke-width="1" opacity="0.796078431372549" d="M 283.5 182 L 284 185.5 L 283 185.5 L 283.5 182 Z " /><path fill="rgb(0,0,0)" stroke="rgb(0,0,0)" stroke-width="1" opacity="0.796078431372549" d="M 299.5 185 L 300 188.5 L 299 188.5 L 299.5 185 Z " /><path fill="rgb(0,0,0)" stroke="rgb(0,0,0)" stroke-width="1" opacity="0.796078431372549" d="M 212.5 186 L 213 188.5 L 212 188.5 L 212.5 186 Z " /><path fill="rgb(0,0,0)" stroke="rgb(0,0,0)" stroke-width="1" opacity="0.796078431372549" d="M 231.5 193 L 232.5 195 L 231.5 193 Z " /><path fill="rgb(0,0,0)" stroke="rgb(0,0,0)" stroke-width="1" opacity="0.796078431372549" d="M 280.5 193 L 279.5 195 L 280.5 193 Z " /><path fill="rgb(0,0,0)" stroke="rgb(0,0,0)" stroke-width="1" opacity="0.796078431372549" d="M 233.5 196 L 235.5 199 L 233.5 196 Z " /><path fill="rgb(0,0,0)" stroke="rgb(0,0,0)" stroke-width="1" opacity="0.796078431372549" d="M 278.5 196 L 276.5 199 L 278.5 196 Z " /><path fill="rgb(0,0,0)" stroke="rgb(0,0,0)" stroke-width="1" opacity="0.796078431372549" d="M 237.5 200 L 239.5 203 L 237.5 200 Z " /><path fill="rgb(0,0,0)" stroke="rgb(0,0,0)" stroke-width="1" opacity="0.796078431372549" d="M 273.5 201 L 272.5 203 L 273.5 201 Z " /><path fill="rgb(0,0,0)" stroke="rgb(0,0,0)" stroke-width="1" opacity="0.796078431372549" d="M 218.5 203 L 219.5 205 L 218.5 203 Z " /><path fill="rgb(0,0,0)" stroke="rgb(0,0,0)" stroke-width="1" opacity="0.796078431372549" d="M 241.5 203 L 242.5 205 L 241.5 203 Z " /><path fill="rgb(0,0,0)" stroke="rgb(0,0,0)" stroke-width="1" opacity="0.796078431372549" d="M 293.5 203 L 292.5 205 L 293.5 203 Z " /><path fill="rgb(0,0,0)" stroke="rgb(0,0,0)" stroke-width="1" opacity="0.796078431372549" d="M 220.5 206 L 223.5 210 L 220.5 206 Z " /><path fill="rgb(0,0,0)" stroke="rgb(0,0,0)" stroke-width="1" opacity="0.796078431372549" d="M 291.5 206 L 288.5 210 L 291.5 206 Z " /><path fill="rgb(0,0,0)" stroke="rgb(0,0,0)" stroke-width="1" opacity="0.796078431372549" d="M 250.5 207 L 253 207.5 L 250.5 208 L 250.5 207 Z " /><path fill="rgb(0,0,0)" stroke="rgb(0,0,0)" stroke-width="1" opacity="0.796078431372549" d="M 259.5 207 L 262 207.5 L 259.5 208 L 259.5 207 Z " /><path fill="rgb(0,0,0)" stroke="rgb(0,0,0)" stroke-width="1" opacity="0.796078431372549" d="M 226.5 212 L 229.5 216 L 226.5 212 Z " /><path fill="rgb(0,0,0)" stroke="rgb(0,0,0)" stroke-width="1" opacity="0.796078431372549" d="M 285.5 212 L 282.5 216 L 285.5 212 Z " /><path fill="rgb(0,0,0)" stroke="rgb(0,0,0)" stroke-width="1" opacity="0.796078431372549" d="M 231.5 216 L 232.5 218 L 231.5 216 Z " /><path fill="rgb(0,0,0)" stroke="rgb(0,0,0)" stroke-width="1" opacity="0.796078431372549" d="M 280.5 216 L 279.5 218 L 280.5 216 Z " /><path fill="rgb(0,0,0)" stroke="rgb(0,0,0)" stroke-width="1" opacity="0.796078431372549" d="M 247.5 223 L 250 223.5 L 247.5 224 L 247.5 223 Z " /><path fill="rgb(0,0,0)" stroke="rgb(0,0,0)" stroke-width="1" opacity="0.796078431372549" d="M 262.5 223 L 265 223.5 L 262.5 224 L 262.5 223 Z " /><path fill="rgb(0,0,0)" stroke="rgb(0,0,0)" stroke-width="1" opacity="0.796078431372549" d="M 284.5 376 L 286 376.5 L 283.5 378 L 284.5 376 Z " /><path fill="rgb(0,0,0)" stroke="rgb(0,0,0)" stroke-width="1" opacity="0.796078431372549" d="M 354.5 376 L 357 377.5 L 355.5 377 L 354.5 376 Z " /><path fill="rgb(0,0,0)" stroke="rgb(0,0,0)" stroke-width="1" opacity="0.796078431372549" d="M 283.5 390 L 286 391.5 L 284.5 392 L 283.5 390 Z " /><path fill="rgb(0,0,0)" stroke="rgb(0,0,0)" stroke-width="1" opacity="0.796078431372549" d="M 356.5 390 L 355.5 392 L 354 391.5 L 356.5 390 Z " /><path fill="rgb(0,0,0)" stroke="rgb(0,0,0)" stroke-width="1" opacity="0.796078431372549" d="M 315.5 412 L 354 412.5 L 315.5 413 L 315.5 412 Z " /><path fill="rgb(0,0,0)" stroke="rgb(0,0,0)" stroke-width="1" opacity="0.796078431372549" d="M 356.5 413 L 358.5 416 L 356.5 413 Z " /><path fill="rgb(0,0,0)" stroke="rgb(0,0,0)" stroke-width="1" opacity="0.796078431372549" d="M 309.5 418 L 310 422.5 L 309 422.5 L 309.5 418 Z " /><path fill="rgb(0,0,0)" stroke="rgb(0,0,0)" stroke-width="1" opacity="0.796078431372549" d="M 358.5 425 L 356.5 428 L 358.5 425 Z " /><path fill="rgb(0,0,0)" stroke="rgb(0,0,0)" stroke-width="1" opacity="0.796078431372549" d="M 315.5 428 L 355 428.5 L 315.5 429 L 315.5 428 Z " /><path fill="rgb(0,0,0)" stroke="rgb(0,0,0)" stroke-width="1" opacity="0.796078431372549" d="M 104.5 458 L 105 460.5 L 104 460.5 L 104.5 458 Z " /><path fill="rgb(0,0,0)" stroke="rgb(0,0,0)" stroke-width="1" opacity="0.796078431372549" d="M 407.5 458 L 408 460.5 L 407 460.5 L 407.5 458 Z " /><path fill="rgb(0,0,0)" stroke="rgb(0,0,0)" stroke-width="1" opacity="0.796078431372549" d="M 107.5 468 L 108.5 470 L 107.5 468 Z " /><path fill="rgb(0,0,0)" stroke="rgb(0,0,0)" stroke-width="1" opacity="0.796078431372549" d="M 404.5 468 L 403.5 470 L 404.5 468 Z " /><path fill="rgb(0,0,0)" stroke="rgb(0,0,0)" stroke-width="1" opacity="0.796078431372549" d="M 397.5 475 L 396.5 477 L 397.5 475 Z " /><path fill="rgb(0,0,0)" stroke="rgb(0,0,0)" stroke-width="1" opacity="0.796078431372549" d="M 123.5 479 L 126 479.5 L 123.5 480 L 123.5 479 Z " /><path fill="rgb(0,0,0)" stroke="rgb(0,0,0)" stroke-width="1" opacity="0.796078431372549" d="M 386.5 479 L 389 479.5 L 386.5 480 L 386.5 479 Z " /><path fill="rgb(0,0,0)" stroke="rgb(0,0,0)" stroke-width="1" opacity="1" d="M 126.5 32 L 385.5 32 L 395.5 35 L 403 41.5 L 359.5 87 L 356.5 88 L 295 88 Q 291.5 78.8 283.5 73 Q 272.5 62.5 249.5 64 Q 230.5 67.5 221 80.5 L 217 88 L 155.5 88 L 152.5 87 L 123 57.5 L 109 41.5 L 116.5 35 L 126.5 32 Z " /><path fill="rgb(0,0,0)" stroke="rgb(0,0,0)" stroke-width="1" opacity="1" d="M 407.5 61 L 408 457.5 L 405 467.5 L 398.5 475 L 393.5 478 L 385.5 480 L 126.5 480 L 116.5 477 L 109 470.5 L 106 465.5 L 104 457.5 L 104 62.5 L 128 85.5 L 140.5 99 L 150.5 104 L 212 104 Q 210.6 115.8 214 123.5 Q 219.3 136.7 230 144.5 L 220 153.5 Q 214.3 160.8 212 171.5 L 212 188.5 Q 216.4 206.6 229.5 216 Q 236.8 221.7 247.5 224 L 264.5 224 Q 282.6 219.6 292 206.5 Q 297.7 199.2 300 188.5 L 300 171.5 Q 295.4 153.6 283 143.5 Q 293.1 136.1 298 123.5 Q 301.4 115.8 300 104 L 361.5 104 Q 372.1 100.6 378 92.5 L 407.5 61 Z M 285 376 L 280 382 L 281 389 L 285 392 L 356 392 L 360 387 L 359 380 L 356 376 L 285 376 Z M 316 412 L 314 413 L 309 419 L 310 425 L 316 429 L 355 429 L 357 428 L 360 424 L 359 416 L 354 412 L 316 412 Z " /><path fill="rgb(0,0,0)" stroke="rgb(0,0,0)" stroke-width="1" opacity="1" d="M 255.5 80 Q 272.4 81.1 279 92.5 L 283 100.5 L 284 109.5 L 281 120.5 L 271.5 131 L 264 134 L 264 153.5 L 266.5 154 L 276 160 L 282 169.5 L 284 181.5 L 282 190.5 L 274.5 201 Q 267.5 208 253.5 208 L 245.5 206 L 236 200 L 230 190.5 L 228 178.5 L 231 167.5 L 240.5 157 L 248 154 L 248 134.5 L 246.5 134 Q 237.8 130.8 233 123.5 L 231 120.5 L 228 108.5 Q 230.5 107 229 101.5 L 233 92.5 L 240.5 85 L 243.5 83 L 255.5 80 Z " /></svg>