<svg width="512" height="512" version="1.1" xmlns="http://www.w3.org/2000/svg" desc="Created with imagetracer.js version 1.2.6" ><path fill="rgb(0,0,0)" stroke="rgb(0,0,0)" stroke-width="1" opacity="0" d="M 0 0 L 512 0 L 512 512 L 0 512 L 0 0 Z M 176 24 L 176 248 L 448 248 L 448 24 L 176 24 Z M 144 56 L 144 248 L 145 248 L 160 248 L 160 57 L 160 56 L 144 56 Z M 112 72 L 112 249 L 115 248 L 128 248 L 128 73 L 128 72 L 112 72 Z M 44 136 L 36 139 Q 27 144 24 156 L 24 469 L 27 477 Q 32 485 44 488 Q 60 490 69 485 Q 77 480 80 469 L 80 283 L 82 275 L 89 263 L 96 257 L 96 136 L 44 136 Z M 464 136 L 464 248 Q 478 248 487 255 L 488 256 L 488 156 L 485 148 Q 479 137 464 136 Z M 116 264 L 108 267 Q 99 272 96 284 L 96 469 L 93 480 L 89 487 L 89 488 L 109 488 L 117 485 Q 125 480 128 469 L 128 283 Q 130 272 136 265 L 116 264 Z M 164 264 L 156 267 Q 147 272 144 284 L 144 469 L 141 480 L 137 487 L 137 488 L 469 488 L 477 485 Q 485 480 488 469 L 488 284 L 485 276 Q 480 267 469 264 L 164 264 Z " /><path fill="rgb(0,0,0)" stroke="rgb(0,0,0)" stroke-width="1" opacity="0" d="M 184 32 L 232 32 L 232 48 L 184 48 L 184 32 Z " /><path fill="rgb(0,0,0)" stroke="rgb(0,0,0)" stroke-width="1" opacity="0" d="M 248 32 L 296 32 L 296 48 L 248 48 L 248 32 Z " /><path fill="rgb(0,0,0)" stroke="rgb(0,0,0)" stroke-width="1" opacity="0" d="M 382.5 40 L 417.5 40 L 423 43.5 L 424 46.5 L 424 233.5 L 422 238 L 417.5 240 L 382.5 240 L 377 236.5 L 376 233.5 L 376 46.5 L 379.5 41 L 382.5 40 Z M 392 56 L 392 224 L 393 224 L 408 224 L 408 57 L 408 56 L 392 56 Z " /><path fill="rgb(0,0,0)" stroke="rgb(0,0,0)" stroke-width="1" opacity="0" d="M 184 56 L 295.5 56 L 296 56.5 L 296 72 L 184.5 72 L 184 71.5 L 184 56 Z " /><path fill="rgb(0,0,0)" stroke="rgb(0,0,0)" stroke-width="1" opacity="0" d="M 270.5 88 L 305.5 88 L 311 91.5 L 312 94.5 L 312 233.5 L 310 238 L 305.5 240 L 270.5 240 L 265 236.5 L 264 233.5 L 264 94.5 L 267.5 89 L 270.5 88 Z M 280 104 L 280 224 L 281 224 L 296 224 L 296 105 L 296 104 L 280 104 Z " /><path fill="rgb(0,0,0)" stroke="rgb(0,0,0)" stroke-width="1" opacity="0" d="M 326.5 112 L 361.5 112 L 367 115.5 L 368 118.5 L 368 233.5 L 366 238 L 361.5 240 L 326.5 240 L 321 236.5 L 320 233.5 L 320 118.5 L 323.5 113 L 326.5 112 Z M 336 128 L 336 224 L 337 224 L 352 224 L 352 129 L 352 128 L 336 128 Z " /><path fill="rgb(0,0,0)" stroke="rgb(0,0,0)" stroke-width="1" opacity="0" d="M 214.5 152 L 249.5 152 L 255 155.5 L 256 158.5 L 256 233.5 L 254 238 L 249.5 240 L 214.5 240 L 209 236.5 L 208 233.5 L 208 158.5 L 211.5 153 L 214.5 152 Z M 224 168 L 224 224 L 225 224 L 240 224 L 240 169 L 240 168 L 224 168 Z " /><path fill="rgb(0,0,0)" stroke="rgb(0,0,0)" stroke-width="1" opacity="0" d="M 374.5 424 L 473.5 424 L 479 427.5 L 480 430.5 L 480 465.5 L 478 470 L 473.5 472 L 374.5 472 L 369 468.5 L 368 465.5 L 368 430.5 L 371.5 425 L 374.5 424 Z M 384 440 L 384 456 L 385 456 L 464 456 L 464 441 L 464 440 L 384 440 Z " /><path fill="rgb(0,0,0)" stroke="rgb(0,0,0)" stroke-width="1" opacity="0" d="M 344 456 L 360 456 L 360 472 L 344 472 L 344 456 Z " /><path fill="rgb(0,0,0)" stroke="rgb(0,0,0)" stroke-width="1" opacity="0.8509803921568627" d="M 43.5 136 L 46 136.5 L 43.5 137 L 43.5 136 Z " /><path fill="rgb(0,0,0)" stroke="rgb(0,0,0)" stroke-width="1" opacity="0.8509803921568627" d="M 466.5 136 L 469 136.5 L 466.5 137 L 466.5 136 Z " /><path fill="rgb(0,0,0)" stroke="rgb(0,0,0)" stroke-width="1" opacity="0.8509803921568627" d="M 35.5 139 L 34.5 141 L 35.5 139 Z " /><path fill="rgb(0,0,0)" stroke="rgb(0,0,0)" stroke-width="1" opacity="0.8509803921568627" d="M 476.5 139 L 477.5 141 L 476.5 139 Z " /><path fill="rgb(0,0,0)" stroke="rgb(0,0,0)" stroke-width="1" opacity="0.8509803921568627" d="M 28.5 146 L 27.5 148 L 28.5 146 Z " /><path fill="rgb(0,0,0)" stroke="rgb(0,0,0)" stroke-width="1" opacity="0.8509803921568627" d="M 483.5 146 L 484.5 148 L 483.5 146 Z " /><path fill="rgb(0,0,0)" stroke="rgb(0,0,0)" stroke-width="1" opacity="0.8509803921568627" d="M 24.5 155 L 25 157.5 L 24 157.5 L 24.5 155 Z " /><path fill="rgb(0,0,0)" stroke="rgb(0,0,0)" stroke-width="1" opacity="0.8509803921568627" d="M 487.5 155 L 488 158.5 L 487 158.5 L 487.5 155 Z " /><path fill="rgb(0,0,0)" stroke="rgb(0,0,0)" stroke-width="1" opacity="0.8509803921568627" d="M 255.5 234 L 256 235.5 L 254 236.5 L 255.5 234 Z " /><path fill="rgb(0,0,0)" stroke="rgb(0,0,0)" stroke-width="1" opacity="0.8509803921568627" d="M 311.5 234 L 312 235.5 L 310 236.5 L 311.5 234 Z " /><path fill="rgb(0,0,0)" stroke="rgb(0,0,0)" stroke-width="1" opacity="0.8509803921568627" d="M 367.5 234 L 368 235.5 L 366 236.5 L 367.5 234 Z " /><path fill="rgb(0,0,0)" stroke="rgb(0,0,0)" stroke-width="1" opacity="0.8509803921568627" d="M 423.5 234 L 424 235.5 L 422 236.5 L 423.5 234 Z " /><path fill="rgb(0,0,0)" stroke="rgb(0,0,0)" stroke-width="1" opacity="0.8509803921568627" d="M 252.5 238 L 251.5 240 L 250 239.5 L 252.5 238 Z " /><path fill="rgb(0,0,0)" stroke="rgb(0,0,0)" stroke-width="1" opacity="0.8509803921568627" d="M 308.5 238 L 307.5 240 L 306 239.5 L 308.5 238 Z " /><path fill="rgb(0,0,0)" stroke="rgb(0,0,0)" stroke-width="1" opacity="0.8509803921568627" d="M 364.5 238 L 363.5 240 L 362 239.5 L 364.5 238 Z " /><path fill="rgb(0,0,0)" stroke="rgb(0,0,0)" stroke-width="1" opacity="0.8509803921568627" d="M 420.5 238 L 419.5 240 L 418 239.5 L 420.5 238 Z " /><path fill="rgb(0,0,0)" stroke="rgb(0,0,0)" stroke-width="1" opacity="0.8509803921568627" d="M 484.5 253 L 485.5 255 L 484.5 253 Z " /><path fill="rgb(0,0,0)" stroke="rgb(0,0,0)" stroke-width="1" opacity="0.8509803921568627" d="M 95.5 256 L 94.5 258 L 95.5 256 Z " /><path fill="rgb(0,0,0)" stroke="rgb(0,0,0)" stroke-width="1" opacity="0.8509803921568627" d="M 88.5 263 L 87.5 265 L 88.5 263 Z " /><path fill="rgb(0,0,0)" stroke="rgb(0,0,0)" stroke-width="1" opacity="0.8509803921568627" d="M 115.5 264 L 118 264.5 L 115.5 265 L 115.5 264 Z " /><path fill="rgb(0,0,0)" stroke="rgb(0,0,0)" stroke-width="1" opacity="0.8509803921568627" d="M 163.5 264 L 166 264.5 L 163.5 265 L 163.5 264 Z " /><path fill="rgb(0,0,0)" stroke="rgb(0,0,0)" stroke-width="1" opacity="0.8509803921568627" d="M 466.5 264 L 469 264.5 L 466.5 265 L 466.5 264 Z " /><path fill="rgb(0,0,0)" stroke="rgb(0,0,0)" stroke-width="1" opacity="0.8509803921568627" d="M 134.5 266 L 133.5 268 L 134.5 266 Z " /><path fill="rgb(0,0,0)" stroke="rgb(0,0,0)" stroke-width="1" opacity="0.8509803921568627" d="M 107.5 267 L 106.5 269 L 107.5 267 Z " /><path fill="rgb(0,0,0)" stroke="rgb(0,0,0)" stroke-width="1" opacity="0.8509803921568627" d="M 155.5 267 L 154.5 269 L 155.5 267 Z " /><path fill="rgb(0,0,0)" stroke="rgb(0,0,0)" stroke-width="1" opacity="0.8509803921568627" d="M 476.5 267 L 477.5 269 L 476.5 267 Z " /><path fill="rgb(0,0,0)" stroke="rgb(0,0,0)" stroke-width="1" opacity="0.8509803921568627" d="M 100.5 274 L 99.5 276 L 100.5 274 Z " /><path fill="rgb(0,0,0)" stroke="rgb(0,0,0)" stroke-width="1" opacity="0.8509803921568627" d="M 148.5 274 L 147.5 276 L 148.5 274 Z " /><path fill="rgb(0,0,0)" stroke="rgb(0,0,0)" stroke-width="1" opacity="0.8509803921568627" d="M 483.5 274 L 484.5 276 L 483.5 274 Z " /><path fill="rgb(0,0,0)" stroke="rgb(0,0,0)" stroke-width="1" opacity="0.8509803921568627" d="M 96.5 283 L 97 285.5 L 96 285.5 L 96.5 283 Z " /><path fill="rgb(0,0,0)" stroke="rgb(0,0,0)" stroke-width="1" opacity="0.8509803921568627" d="M 144.5 283 L 145 285.5 L 144 285.5 L 144.5 283 Z " /><path fill="rgb(0,0,0)" stroke="rgb(0,0,0)" stroke-width="1" opacity="0.8509803921568627" d="M 487.5 283 L 488 286.5 L 487 286.5 L 487.5 283 Z " /><path fill="rgb(0,0,0)" stroke="rgb(0,0,0)" stroke-width="1" opacity="0.8509803921568627" d="M 79.5 465 L 80 468.5 L 79 468.5 L 79.5 465 Z " /><path fill="rgb(0,0,0)" stroke="rgb(0,0,0)" stroke-width="1" opacity="0.8509803921568627" d="M 127.5 465 L 128 468.5 L 127 468.5 L 127.5 465 Z " /><path fill="rgb(0,0,0)" stroke="rgb(0,0,0)" stroke-width="1" opacity="0.8509803921568627" d="M 487.5 465 L 488 468.5 L 487 468.5 L 487.5 465 Z " /><path fill="rgb(0,0,0)" stroke="rgb(0,0,0)" stroke-width="1" opacity="0.8509803921568627" d="M 24.5 466 L 25 468.5 L 24 468.5 L 24.5 466 Z " /><path fill="rgb(0,0,0)" stroke="rgb(0,0,0)" stroke-width="1" opacity="0.8509803921568627" d="M 479.5 466 L 480 467.5 L 478 468.5 L 479.5 466 Z " /><path fill="rgb(0,0,0)" stroke="rgb(0,0,0)" stroke-width="1" opacity="0.8509803921568627" d="M 95.5 469 L 96 471.5 L 95 471.5 L 95.5 469 Z " /><path fill="rgb(0,0,0)" stroke="rgb(0,0,0)" stroke-width="1" opacity="0.8509803921568627" d="M 143.5 469 L 144 471.5 L 143 471.5 L 143.5 469 Z " /><path fill="rgb(0,0,0)" stroke="rgb(0,0,0)" stroke-width="1" opacity="0.8509803921568627" d="M 476.5 470 L 475.5 472 L 474 471.5 L 476.5 470 Z " /><path fill="rgb(0,0,0)" stroke="rgb(0,0,0)" stroke-width="1" opacity="0.8509803921568627" d="M 27.5 476 L 28.5 478 L 27.5 476 Z " /><path fill="rgb(0,0,0)" stroke="rgb(0,0,0)" stroke-width="1" opacity="0.8509803921568627" d="M 76.5 476 L 75.5 478 L 76.5 476 Z " /><path fill="rgb(0,0,0)" stroke="rgb(0,0,0)" stroke-width="1" opacity="0.8509803921568627" d="M 124.5 476 L 123.5 478 L 124.5 476 Z " /><path fill="rgb(0,0,0)" stroke="rgb(0,0,0)" stroke-width="1" opacity="0.8509803921568627" d="M 484.5 476 L 483.5 478 L 484.5 476 Z " /><path fill="rgb(0,0,0)" stroke="rgb(0,0,0)" stroke-width="1" opacity="0.8509803921568627" d="M 34.5 483 L 35.5 485 L 34.5 483 Z " /><path fill="rgb(0,0,0)" stroke="rgb(0,0,0)" stroke-width="1" opacity="0.8509803921568627" d="M 69.5 483 L 68.5 485 L 69.5 483 Z " /><path fill="rgb(0,0,0)" stroke="rgb(0,0,0)" stroke-width="1" opacity="0.8509803921568627" d="M 117.5 483 L 116.5 485 L 117.5 483 Z " /><path fill="rgb(0,0,0)" stroke="rgb(0,0,0)" stroke-width="1" opacity="0.8509803921568627" d="M 477.5 483 L 476.5 485 L 477.5 483 Z " /><path fill="rgb(0,0,0)" stroke="rgb(0,0,0)" stroke-width="1" opacity="0.8509803921568627" d="M 90.5 484 L 89.5 486 L 90.5 484 Z " /><path fill="rgb(0,0,0)" stroke="rgb(0,0,0)" stroke-width="1" opacity="0.8509803921568627" d="M 138.5 484 L 137.5 486 L 138.5 484 Z " /><path fill="rgb(0,0,0)" stroke="rgb(0,0,0)" stroke-width="1" opacity="0.8509803921568627" d="M 43.5 487 L 47 487.5 L 43.5 488 L 43.5 487 Z " /><path fill="rgb(0,0,0)" stroke="rgb(0,0,0)" stroke-width="1" opacity="0.8509803921568627" d="M 57.5 487 L 61 487.5 L 57.5 488 L 57.5 487 Z " /><path fill="rgb(0,0,0)" stroke="rgb(0,0,0)" stroke-width="1" opacity="0.8509803921568627" d="M 105.5 487 L 109 487.5 L 105.5 488 L 105.5 487 Z " /><path fill="rgb(0,0,0)" stroke="rgb(0,0,0)" stroke-width="1" opacity="0.8509803921568627" d="M 465.5 487 L 469 487.5 L 465.5 488 L 465.5 487 Z " /><path fill="rgb(0,0,0)" stroke="rgb(0,0,0)" stroke-width="1" opacity="1" d="M 176 24 L 448 24 L 448 248 L 176 248 L 176 24 Z M 184 32 L 184 48 L 232 48 L 232 32 L 184 32 Z M 248 32 L 248 48 L 296 48 L 296 32 L 248 32 Z M 381 40 L 376 45 L 376 236 L 381 240 L 420 240 L 424 236 L 424 45 L 420 40 L 381 40 Z M 184 56 L 184 72 L 185 72 L 296 72 L 296 57 L 296 56 L 184 56 Z M 269 88 L 264 93 L 264 236 L 269 240 L 308 240 L 312 236 L 312 93 L 308 88 L 269 88 Z M 325 112 L 320 117 L 320 236 L 325 240 L 364 240 L 368 236 L 368 117 L 364 112 L 325 112 Z M 213 152 L 208 157 L 208 236 L 213 240 L 252 240 L 256 236 L 256 157 L 252 152 L 213 152 Z " /><path fill="rgb(0,0,0)" stroke="rgb(0,0,0)" stroke-width="1" opacity="1" d="M 144 56 L 159.5 56 L 160 56.5 L 160 248 L 144.5 248 L 144 247.5 L 144 56 Z " /><path fill="rgb(0,0,0)" stroke="rgb(0,0,0)" stroke-width="1" opacity="1" d="M 392 56 L 407.5 56 L 408 56.5 L 408 224 L 392.5 224 L 392 223.5 L 392 56 Z " /><path fill="rgb(0,0,0)" stroke="rgb(0,0,0)" stroke-width="1" opacity="1" d="M 112 72 L 127.5 72 L 128 72.5 L 128 248 L 112.5 248 L 112 247.5 L 112 72 Z " /><path fill="rgb(0,0,0)" stroke="rgb(0,0,0)" stroke-width="1" opacity="1" d="M 280 104 L 295.5 104 L 296 104.5 L 296 224 L 280.5 224 L 280 223.5 L 280 104 Z " /><path fill="rgb(0,0,0)" stroke="rgb(0,0,0)" stroke-width="1" opacity="1" d="M 336 128 L 351.5 128 L 352 128.5 L 352 224 L 336.5 224 L 336 223.5 L 336 128 Z " /><path fill="rgb(0,0,0)" stroke="rgb(0,0,0)" stroke-width="1" opacity="1" d="M 46.5 136 L 96 136 L 96 255.5 Q 83.9 263.9 80 280.5 L 80 464.5 L 77 475.5 L 70.5 483 L 62.5 487 L 47.5 488 L 36.5 485 L 29 478.5 L 26 473.5 L 24 465.5 L 24 158.5 L 27 148.5 L 33.5 141 L 38.5 138 L 46.5 136 Z " /><path fill="rgb(0,0,0)" stroke="rgb(0,0,0)" stroke-width="1" opacity="1" d="M 464 136 L 475.5 139 L 483 145.5 L 486 150.5 L 488 159.5 L 488 255 L 475.5 249 L 464 248 L 464 136 Z " /><path fill="rgb(0,0,0)" stroke="rgb(0,0,0)" stroke-width="1" opacity="1" d="M 224 168 L 239.5 168 L 240 168.5 L 240 224 L 224.5 224 L 224 223.5 L 224 168 Z " /><path fill="rgb(0,0,0)" stroke="rgb(0,0,0)" stroke-width="1" opacity="1" d="M 118.5 264 L 134.5 264 L 135 265.5 Q 129.7 271.2 128 280.5 L 128 464.5 L 125 475.5 L 118.5 483 L 110.5 487 L 89 488 Q 93.8 481.5 96 471.5 L 96 286.5 L 99 276.5 L 105.5 269 L 110.5 266 L 118.5 264 Z " /><path fill="rgb(0,0,0)" stroke="rgb(0,0,0)" stroke-width="1" opacity="1" d="M 166.5 264 L 465.5 264 L 475.5 267 L 483 273.5 L 486 278.5 L 488 287.5 L 488 464.5 L 485 475.5 L 478.5 483 L 473.5 486 L 464.5 488 L 137 488 Q 141.8 481.5 144 471.5 L 144 286.5 L 147 276.5 L 153.5 269 L 158.5 266 L 166.5 264 Z M 373 424 L 368 429 L 368 468 L 373 472 L 476 472 L 480 468 L 480 429 L 476 424 L 373 424 Z M 344 456 L 344 472 L 360 472 L 360 456 L 344 456 Z " /><path fill="rgb(0,0,0)" stroke="rgb(0,0,0)" stroke-width="1" opacity="1" d="M 384 440 L 463.5 440 L 464 440.5 L 464 456 L 384.5 456 L 384 455.5 L 384 440 Z " /></svg>