<svg width="512" height="512" version="1.1" xmlns="http://www.w3.org/2000/svg" desc="Created with imagetracer.js version 1.2.6" ><path fill="rgb(0,0,0)" stroke="rgb(0,0,0)" stroke-width="1" opacity="0.796078431372549" d="M 145.5 16 L 150 16.5 L 145.5 17 L 145.5 16 Z " /><path fill="rgb(0,0,0)" stroke="rgb(0,0,0)" stroke-width="1" opacity="0.796078431372549" d="M 186.5 16 L 191 16.5 L 186.5 17 L 186.5 16 Z " /><path fill="rgb(0,0,0)" stroke="rgb(0,0,0)" stroke-width="1" opacity="0.796078431372549" d="M 133.5 20 L 132.5 22 L 133.5 20 Z " /><path fill="rgb(0,0,0)" stroke="rgb(0,0,0)" stroke-width="1" opacity="0.796078431372549" d="M 127.5 24 L 125.5 27 L 127.5 24 Z " /><path fill="rgb(0,0,0)" stroke="rgb(0,0,0)" stroke-width="1" opacity="0.796078431372549" d="M 208.5 24 L 210.5 27 L 208.5 24 Z " /><path fill="rgb(0,0,0)" stroke="rgb(0,0,0)" stroke-width="1" opacity="0.796078431372549" d="M 122.5 29 L 120.5 32 L 122.5 29 Z " /><path fill="rgb(0,0,0)" stroke="rgb(0,0,0)" stroke-width="1" opacity="0.796078431372549" d="M 213.5 29 L 215.5 32 L 213.5 29 Z " /><path fill="rgb(0,0,0)" stroke="rgb(0,0,0)" stroke-width="1" opacity="0.796078431372549" d="M 247.5 30 L 242.5 36 L 247.5 30 Z " /><path fill="rgb(0,0,0)" stroke="rgb(0,0,0)" stroke-width="1" opacity="0.796078431372549" d="M 272.5 30 L 277.5 36 L 272.5 30 Z " /><path fill="rgb(0,0,0)" stroke="rgb(0,0,0)" stroke-width="1" opacity="0.796078431372549" d="M 311.5 30 L 306.5 36 L 311.5 30 Z " /><path fill="rgb(0,0,0)" stroke="rgb(0,0,0)" stroke-width="1" opacity="0.796078431372549" d="M 488.5 30 L 493.5 36 L 488.5 30 Z " /><path fill="rgb(0,0,0)" stroke="rgb(0,0,0)" stroke-width="1" opacity="0.796078431372549" d="M 218.5 36 L 219.5 38 L 218.5 36 Z " /><path fill="rgb(0,0,0)" stroke="rgb(0,0,0)" stroke-width="1" opacity="0.796078431372549" d="M 112.5 49 L 113 53.5 L 112 53.5 L 112.5 49 Z " /><path fill="rgb(0,0,0)" stroke="rgb(0,0,0)" stroke-width="1" opacity="0.796078431372549" d="M 223.5 49 L 224 53.5 L 223 53.5 L 223.5 49 Z " /><path fill="rgb(0,0,0)" stroke="rgb(0,0,0)" stroke-width="1" opacity="0.796078431372549" d="M 242.5 52 L 247.5 58 L 242.5 52 Z " /><path fill="rgb(0,0,0)" stroke="rgb(0,0,0)" stroke-width="1" opacity="0.796078431372549" d="M 277.5 52 L 272.5 58 L 277.5 52 Z " /><path fill="rgb(0,0,0)" stroke="rgb(0,0,0)" stroke-width="1" opacity="0.796078431372549" d="M 306.5 52 L 311.5 58 L 306.5 52 Z " /><path fill="rgb(0,0,0)" stroke="rgb(0,0,0)" stroke-width="1" opacity="0.796078431372549" d="M 493.5 52 L 488.5 58 L 493.5 52 Z " /><path fill="rgb(0,0,0)" stroke="rgb(0,0,0)" stroke-width="1" opacity="0.796078431372549" d="M 247.5 86 L 242.5 92 L 247.5 86 Z " /><path fill="rgb(0,0,0)" stroke="rgb(0,0,0)" stroke-width="1" opacity="0.796078431372549" d="M 488.5 86 L 493.5 92 L 488.5 86 Z " /><path fill="rgb(0,0,0)" stroke="rgb(0,0,0)" stroke-width="1" opacity="0.796078431372549" d="M 112.5 90 L 113 94.5 L 112 94.5 L 112.5 90 Z " /><path fill="rgb(0,0,0)" stroke="rgb(0,0,0)" stroke-width="1" opacity="0.796078431372549" d="M 223.5 90 L 224 94.5 L 223 94.5 L 223.5 90 Z " /><path fill="rgb(0,0,0)" stroke="rgb(0,0,0)" stroke-width="1" opacity="0.796078431372549" d="M 116.5 106 L 117.5 108 L 116.5 106 Z " /><path fill="rgb(0,0,0)" stroke="rgb(0,0,0)" stroke-width="1" opacity="0.796078431372549" d="M 219.5 106 L 218.5 108 L 219.5 106 Z " /><path fill="rgb(0,0,0)" stroke="rgb(0,0,0)" stroke-width="1" opacity="0.796078431372549" d="M 242.5 108 L 247.5 114 L 242.5 108 Z " /><path fill="rgb(0,0,0)" stroke="rgb(0,0,0)" stroke-width="1" opacity="0.796078431372549" d="M 493.5 108 L 488.5 114 L 493.5 108 Z " /><path fill="rgb(0,0,0)" stroke="rgb(0,0,0)" stroke-width="1" opacity="0.796078431372549" d="M 120.5 112 L 122.5 115 L 120.5 112 Z " /><path fill="rgb(0,0,0)" stroke="rgb(0,0,0)" stroke-width="1" opacity="0.796078431372549" d="M 215.5 112 L 213.5 115 L 215.5 112 Z " /><path fill="rgb(0,0,0)" stroke="rgb(0,0,0)" stroke-width="1" opacity="0.796078431372549" d="M 125.5 117 L 127.5 120 L 125.5 117 Z " /><path fill="rgb(0,0,0)" stroke="rgb(0,0,0)" stroke-width="1" opacity="0.796078431372549" d="M 210.5 117 L 208.5 120 L 210.5 117 Z " /><path fill="rgb(0,0,0)" stroke="rgb(0,0,0)" stroke-width="1" opacity="0.796078431372549" d="M 132.5 122 L 133.5 124 L 132.5 122 Z " /><path fill="rgb(0,0,0)" stroke="rgb(0,0,0)" stroke-width="1" opacity="0.796078431372549" d="M 203.5 122 L 202.5 124 L 203.5 122 Z " /><path fill="rgb(0,0,0)" stroke="rgb(0,0,0)" stroke-width="1" opacity="0.796078431372549" d="M 145.5 127 L 150 127.5 L 145.5 128 L 145.5 127 Z " /><path fill="rgb(0,0,0)" stroke="rgb(0,0,0)" stroke-width="1" opacity="0.796078431372549" d="M 186.5 127 L 191 127.5 L 186.5 128 L 186.5 127 Z " /><path fill="rgb(0,0,0)" stroke="rgb(0,0,0)" stroke-width="1" opacity="0.796078431372549" d="M 257.5 144 L 262 144.5 L 257.5 145 L 257.5 144 Z " /><path fill="rgb(0,0,0)" stroke="rgb(0,0,0)" stroke-width="1" opacity="0.796078431372549" d="M 298.5 144 L 303 144.5 L 298.5 145 L 298.5 144 Z " /><path fill="rgb(0,0,0)" stroke="rgb(0,0,0)" stroke-width="1" opacity="0.796078431372549" d="M 245.5 148 L 244.5 150 L 245.5 148 Z " /><path fill="rgb(0,0,0)" stroke="rgb(0,0,0)" stroke-width="1" opacity="0.796078431372549" d="M 239.5 152 L 237.5 155 L 239.5 152 Z " /><path fill="rgb(0,0,0)" stroke="rgb(0,0,0)" stroke-width="1" opacity="0.796078431372549" d="M 320.5 152 L 322.5 155 L 320.5 152 Z " /><path fill="rgb(0,0,0)" stroke="rgb(0,0,0)" stroke-width="1" opacity="0.796078431372549" d="M 234.5 157 L 232.5 160 L 234.5 157 Z " /><path fill="rgb(0,0,0)" stroke="rgb(0,0,0)" stroke-width="1" opacity="0.796078431372549" d="M 325.5 157 L 327.5 160 L 325.5 157 Z " /><path fill="rgb(0,0,0)" stroke="rgb(0,0,0)" stroke-width="1" opacity="0.796078431372549" d="M 359.5 158 L 354.5 164 L 359.5 158 Z " /><path fill="rgb(0,0,0)" stroke="rgb(0,0,0)" stroke-width="1" opacity="0.796078431372549" d="M 384.5 158 L 389.5 164 L 384.5 158 Z " /><path fill="rgb(0,0,0)" stroke="rgb(0,0,0)" stroke-width="1" opacity="0.796078431372549" d="M 423.5 158 L 418.5 164 L 423.5 158 Z " /><path fill="rgb(0,0,0)" stroke="rgb(0,0,0)" stroke-width="1" opacity="0.796078431372549" d="M 488.5 158 L 493.5 164 L 488.5 158 Z " /><path fill="rgb(0,0,0)" stroke="rgb(0,0,0)" stroke-width="1" opacity="0.796078431372549" d="M 330.5 164 L 331.5 166 L 330.5 164 Z " /><path fill="rgb(0,0,0)" stroke="rgb(0,0,0)" stroke-width="1" opacity="0.796078431372549" d="M 224.5 177 L 225 181.5 L 224 181.5 L 224.5 177 Z " /><path fill="rgb(0,0,0)" stroke="rgb(0,0,0)" stroke-width="1" opacity="0.796078431372549" d="M 335.5 177 L 336 181.5 L 335 181.5 L 335.5 177 Z " /><path fill="rgb(0,0,0)" stroke="rgb(0,0,0)" stroke-width="1" opacity="0.796078431372549" d="M 354.5 180 L 359.5 186 L 354.5 180 Z " /><path fill="rgb(0,0,0)" stroke="rgb(0,0,0)" stroke-width="1" opacity="0.796078431372549" d="M 389.5 180 L 384.5 186 L 389.5 180 Z " /><path fill="rgb(0,0,0)" stroke="rgb(0,0,0)" stroke-width="1" opacity="0.796078431372549" d="M 418.5 180 L 423.5 186 L 418.5 180 Z " /><path fill="rgb(0,0,0)" stroke="rgb(0,0,0)" stroke-width="1" opacity="0.796078431372549" d="M 493.5 180 L 488.5 186 L 493.5 180 Z " /><path fill="rgb(0,0,0)" stroke="rgb(0,0,0)" stroke-width="1" opacity="0.796078431372549" d="M 359.5 214 L 354.5 220 L 359.5 214 Z " /><path fill="rgb(0,0,0)" stroke="rgb(0,0,0)" stroke-width="1" opacity="0.796078431372549" d="M 488.5 214 L 493.5 220 L 488.5 214 Z " /><path fill="rgb(0,0,0)" stroke="rgb(0,0,0)" stroke-width="1" opacity="0.796078431372549" d="M 224.5 218 L 225 222.5 L 224 222.5 L 224.5 218 Z " /><path fill="rgb(0,0,0)" stroke="rgb(0,0,0)" stroke-width="1" opacity="0.796078431372549" d="M 335.5 218 L 336 222.5 L 335 222.5 L 335.5 218 Z " /><path fill="rgb(0,0,0)" stroke="rgb(0,0,0)" stroke-width="1" opacity="0.796078431372549" d="M 118.5 221 L 121 221.5 L 118.5 222 L 118.5 221 Z " /><path fill="rgb(0,0,0)" stroke="rgb(0,0,0)" stroke-width="1" opacity="0.796078431372549" d="M 151.5 221 L 154 221.5 L 151.5 222 L 151.5 221 Z " /><path fill="rgb(0,0,0)" stroke="rgb(0,0,0)" stroke-width="1" opacity="0.796078431372549" d="M 168.5 226 L 171 227.5 L 169.5 227 L 168.5 226 Z " /><path fill="rgb(0,0,0)" stroke="rgb(0,0,0)" stroke-width="1" opacity="0.796078431372549" d="M 97.5 229 L 96.5 231 L 97.5 229 Z " /><path fill="rgb(0,0,0)" stroke="rgb(0,0,0)" stroke-width="1" opacity="0.796078431372549" d="M 174.5 229 L 175.5 231 L 174.5 229 Z " /><path fill="rgb(0,0,0)" stroke="rgb(0,0,0)" stroke-width="1" opacity="0.796078431372549" d="M 93.5 232 L 91.5 235 L 93.5 232 Z " /><path fill="rgb(0,0,0)" stroke="rgb(0,0,0)" stroke-width="1" opacity="0.796078431372549" d="M 178.5 232 L 186.5 241 L 178.5 232 Z " /><path fill="rgb(0,0,0)" stroke="rgb(0,0,0)" stroke-width="1" opacity="0.796078431372549" d="M 228.5 234 L 229.5 236 L 228.5 234 Z " /><path fill="rgb(0,0,0)" stroke="rgb(0,0,0)" stroke-width="1" opacity="0.796078431372549" d="M 331.5 234 L 330.5 236 L 331.5 234 Z " /><path fill="rgb(0,0,0)" stroke="rgb(0,0,0)" stroke-width="1" opacity="0.796078431372549" d="M 354.5 236 L 359.5 242 L 354.5 236 Z " /><path fill="rgb(0,0,0)" stroke="rgb(0,0,0)" stroke-width="1" opacity="0.796078431372549" d="M 493.5 236 L 488.5 242 L 493.5 236 Z " /><path fill="rgb(0,0,0)" stroke="rgb(0,0,0)" stroke-width="1" opacity="0.796078431372549" d="M 87.5 238 L 84.5 242 L 87.5 238 Z " /><path fill="rgb(0,0,0)" stroke="rgb(0,0,0)" stroke-width="1" opacity="0.796078431372549" d="M 232.5 240 L 234.5 243 L 232.5 240 Z " /><path fill="rgb(0,0,0)" stroke="rgb(0,0,0)" stroke-width="1" opacity="0.796078431372549" d="M 327.5 240 L 325.5 243 L 327.5 240 Z " /><path fill="rgb(0,0,0)" stroke="rgb(0,0,0)" stroke-width="1" opacity="0.796078431372549" d="M 188.5 243 L 189.5 245 L 188.5 243 Z " /><path fill="rgb(0,0,0)" stroke="rgb(0,0,0)" stroke-width="1" opacity="0.796078431372549" d="M 237.5 245 L 239.5 248 L 237.5 245 Z " /><path fill="rgb(0,0,0)" stroke="rgb(0,0,0)" stroke-width="1" opacity="0.796078431372549" d="M 322.5 245 L 320.5 248 L 322.5 245 Z " /><path fill="rgb(0,0,0)" stroke="rgb(0,0,0)" stroke-width="1" opacity="0.796078431372549" d="M 81.5 246 L 80.5 248 L 81.5 246 Z " /><path fill="rgb(0,0,0)" stroke="rgb(0,0,0)" stroke-width="1" opacity="0.796078431372549" d="M 244.5 250 L 245.5 252 L 244.5 250 Z " /><path fill="rgb(0,0,0)" stroke="rgb(0,0,0)" stroke-width="1" opacity="0.796078431372549" d="M 315.5 250 L 314.5 252 L 315.5 250 Z " /><path fill="rgb(0,0,0)" stroke="rgb(0,0,0)" stroke-width="1" opacity="0.796078431372549" d="M 257.5 255 L 262 255.5 L 257.5 256 L 257.5 255 Z " /><path fill="rgb(0,0,0)" stroke="rgb(0,0,0)" stroke-width="1" opacity="0.796078431372549" d="M 298.5 255 L 303 255.5 L 298.5 256 L 298.5 255 Z " /><path fill="rgb(0,0,0)" stroke="rgb(0,0,0)" stroke-width="1" opacity="0.796078431372549" d="M 74.5 263 L 75 265.5 L 74 265.5 L 74.5 263 Z " /><path fill="rgb(0,0,0)" stroke="rgb(0,0,0)" stroke-width="1" opacity="0.796078431372549" d="M 197.5 264 L 198 266.5 L 197 266.5 L 197.5 264 Z " /><path fill="rgb(0,0,0)" stroke="rgb(0,0,0)" stroke-width="1" opacity="0.796078431372549" d="M 73.5 270 L 74 306.5 L 73 306.5 L 73.5 270 Z " /><path fill="rgb(0,0,0)" stroke="rgb(0,0,0)" stroke-width="1" opacity="0.796078431372549" d="M 198.5 274 L 199 301.5 L 198 301.5 L 198.5 274 Z " /><path fill="rgb(0,0,0)" stroke="rgb(0,0,0)" stroke-width="1" opacity="0.796078431372549" d="M 197.5 310 L 198 312.5 L 197 312.5 L 197.5 310 Z " /><path fill="rgb(0,0,0)" stroke="rgb(0,0,0)" stroke-width="1" opacity="0.796078431372549" d="M 74.5 311 L 75 313.5 L 74 313.5 L 74.5 311 Z " /><path fill="rgb(0,0,0)" stroke="rgb(0,0,0)" stroke-width="1" opacity="0.796078431372549" d="M 82.5 334 L 83.5 336 L 82.5 334 Z " /><path fill="rgb(0,0,0)" stroke="rgb(0,0,0)" stroke-width="1" opacity="0.796078431372549" d="M 84.5 337 L 85.5 339 L 84.5 337 Z " /><path fill="rgb(0,0,0)" stroke="rgb(0,0,0)" stroke-width="1" opacity="0.796078431372549" d="M 187.5 337 L 186.5 339 L 187.5 337 Z " /><path fill="rgb(0,0,0)" stroke="rgb(0,0,0)" stroke-width="1" opacity="0.796078431372549" d="M 46.5 338 L 43.5 342 L 46.5 338 Z " /><path fill="rgb(0,0,0)" stroke="rgb(0,0,0)" stroke-width="1" opacity="0.796078431372549" d="M 225.5 338 L 228.5 342 L 225.5 338 Z " /><path fill="rgb(0,0,0)" stroke="rgb(0,0,0)" stroke-width="1" opacity="0.796078431372549" d="M 86.5 340 L 89.5 344 L 86.5 340 Z " /><path fill="rgb(0,0,0)" stroke="rgb(0,0,0)" stroke-width="1" opacity="0.796078431372549" d="M 184.5 341 L 180.5 346 L 184.5 341 Z " /><path fill="rgb(0,0,0)" stroke="rgb(0,0,0)" stroke-width="1" opacity="0.796078431372549" d="M 41.5 344 L 39.5 347 L 41.5 344 Z " /><path fill="rgb(0,0,0)" stroke="rgb(0,0,0)" stroke-width="1" opacity="0.796078431372549" d="M 230.5 344 L 232.5 347 L 230.5 344 Z " /><path fill="rgb(0,0,0)" stroke="rgb(0,0,0)" stroke-width="1" opacity="0.796078431372549" d="M 178.5 347 L 174.5 352 L 178.5 347 Z " /><path fill="rgb(0,0,0)" stroke="rgb(0,0,0)" stroke-width="1" opacity="0.796078431372549" d="M 38.5 348 L 37.5 350 L 38.5 348 Z " /><path fill="rgb(0,0,0)" stroke="rgb(0,0,0)" stroke-width="1" opacity="0.796078431372549" d="M 94.5 348 L 97.5 352 L 94.5 348 Z " /><path fill="rgb(0,0,0)" stroke="rgb(0,0,0)" stroke-width="1" opacity="0.796078431372549" d="M 233.5 348 L 234.5 350 L 233.5 348 Z " /><path fill="rgb(0,0,0)" stroke="rgb(0,0,0)" stroke-width="1" opacity="0.796078431372549" d="M 54.5 350 L 55.5 352 L 54.5 350 Z " /><path fill="rgb(0,0,0)" stroke="rgb(0,0,0)" stroke-width="1" opacity="0.796078431372549" d="M 217.5 350 L 216.5 352 L 217.5 350 Z " /><path fill="rgb(0,0,0)" stroke="rgb(0,0,0)" stroke-width="1" opacity="0.796078431372549" d="M 36.5 351 L 35.5 353 L 36.5 351 Z " /><path fill="rgb(0,0,0)" stroke="rgb(0,0,0)" stroke-width="1" opacity="0.796078431372549" d="M 235.5 351 L 236.5 353 L 235.5 351 Z " /><path fill="rgb(0,0,0)" stroke="rgb(0,0,0)" stroke-width="1" opacity="0.796078431372549" d="M 172.5 352 L 171.5 354 L 172.5 352 Z " /><path fill="rgb(0,0,0)" stroke="rgb(0,0,0)" stroke-width="1" opacity="0.796078431372549" d="M 100.5 353 L 101.5 355 L 100.5 353 Z " /><path fill="rgb(0,0,0)" stroke="rgb(0,0,0)" stroke-width="1" opacity="0.796078431372549" d="M 215.5 353 L 214.5 355 L 215.5 353 Z " /><path fill="rgb(0,0,0)" stroke="rgb(0,0,0)" stroke-width="1" opacity="0.796078431372549" d="M 34.5 354 L 33.5 356 L 34.5 354 Z " /><path fill="rgb(0,0,0)" stroke="rgb(0,0,0)" stroke-width="1" opacity="0.796078431372549" d="M 169.5 354 L 168.5 356 L 169.5 354 Z " /><path fill="rgb(0,0,0)" stroke="rgb(0,0,0)" stroke-width="1" opacity="0.796078431372549" d="M 237.5 354 L 238.5 356 L 237.5 354 Z " /><path fill="rgb(0,0,0)" stroke="rgb(0,0,0)" stroke-width="1" opacity="0.796078431372549" d="M 58.5 356 L 59.5 358 L 58.5 356 Z " /><path fill="rgb(0,0,0)" stroke="rgb(0,0,0)" stroke-width="1" opacity="0.796078431372549" d="M 105.5 356 L 108 357.5 L 106.5 358 L 105.5 356 Z " /><path fill="rgb(0,0,0)" stroke="rgb(0,0,0)" stroke-width="1" opacity="0.796078431372549" d="M 213.5 356 L 212.5 358 L 213.5 356 Z " /><path fill="rgb(0,0,0)" stroke="rgb(0,0,0)" stroke-width="1" opacity="0.796078431372549" d="M 60.5 359 L 62.5 362 L 60.5 359 Z " /><path fill="rgb(0,0,0)" stroke="rgb(0,0,0)" stroke-width="1" opacity="0.796078431372549" d="M 210.5 360 L 209.5 362 L 210.5 360 Z " /><path fill="rgb(0,0,0)" stroke="rgb(0,0,0)" stroke-width="1" opacity="0.796078431372549" d="M 30.5 361 L 29.5 363 L 30.5 361 Z " /><path fill="rgb(0,0,0)" stroke="rgb(0,0,0)" stroke-width="1" opacity="0.796078431372549" d="M 241.5 361 L 242.5 363 L 241.5 361 Z " /><path fill="rgb(0,0,0)" stroke="rgb(0,0,0)" stroke-width="1" opacity="0.796078431372549" d="M 146.5 363 L 149 363.5 L 146.5 364 L 146.5 363 Z " /><path fill="rgb(0,0,0)" stroke="rgb(0,0,0)" stroke-width="1" opacity="0.796078431372549" d="M 129.5 364 L 143 364.5 L 129.5 365 L 129.5 364 Z " /><path fill="rgb(0,0,0)" stroke="rgb(0,0,0)" stroke-width="1" opacity="0.796078431372549" d="M 65.5 365 L 73.5 374 L 65.5 365 Z " /><path fill="rgb(0,0,0)" stroke="rgb(0,0,0)" stroke-width="1" opacity="0.796078431372549" d="M 206.5 365 L 199.5 373 L 206.5 365 Z " /><path fill="rgb(0,0,0)" stroke="rgb(0,0,0)" stroke-width="1" opacity="0.796078431372549" d="M 195.5 375 L 193.5 378 L 195.5 375 Z " /><path fill="rgb(0,0,0)" stroke="rgb(0,0,0)" stroke-width="1" opacity="0.796078431372549" d="M 77.5 376 L 78.5 378 L 77.5 376 Z " /><path fill="rgb(0,0,0)" stroke="rgb(0,0,0)" stroke-width="1" opacity="0.796078431372549" d="M 81.5 379 L 82.5 381 L 81.5 379 Z " /><path fill="rgb(0,0,0)" stroke="rgb(0,0,0)" stroke-width="1" opacity="0.796078431372549" d="M 190.5 379 L 189.5 381 L 190.5 379 Z " /><path fill="rgb(0,0,0)" stroke="rgb(0,0,0)" stroke-width="1" opacity="0.796078431372549" d="M 91.5 385 L 92.5 387 L 91.5 385 Z " /><path fill="rgb(0,0,0)" stroke="rgb(0,0,0)" stroke-width="1" opacity="0.796078431372549" d="M 180.5 385 L 179.5 387 L 180.5 385 Z " /><path fill="rgb(0,0,0)" stroke="rgb(0,0,0)" stroke-width="1" opacity="0.796078431372549" d="M 19.5 388 L 20 390.5 L 19 390.5 L 19.5 388 Z " /><path fill="rgb(0,0,0)" stroke="rgb(0,0,0)" stroke-width="1" opacity="0.796078431372549" d="M 118.5 395 L 121 395.5 L 118.5 396 L 118.5 395 Z " /><path fill="rgb(0,0,0)" stroke="rgb(0,0,0)" stroke-width="1" opacity="0.796078431372549" d="M 125.5 396 L 131 396.5 L 125.5 397 L 125.5 396 Z " /><path fill="rgb(0,0,0)" stroke="rgb(0,0,0)" stroke-width="1" opacity="0.796078431372549" d="M 141.5 396 L 147 396.5 L 141.5 397 L 141.5 396 Z " /><path fill="rgb(0,0,0)" stroke="rgb(0,0,0)" stroke-width="1" opacity="0.796078431372549" d="M 17.5 398 L 18 400.5 L 17 400.5 L 17.5 398 Z " /><path fill="rgb(0,0,0)" stroke="rgb(0,0,0)" stroke-width="1" opacity="0.796078431372549" d="M 254.5 398 L 255 401.5 L 254 401.5 L 254.5 398 Z " /><path fill="rgb(0,0,0)" stroke="rgb(0,0,0)" stroke-width="1" opacity="0.796078431372549" d="M 16.5 406 L 17 412.5 L 16 412.5 L 16.5 406 Z " /><path fill="rgb(0,0,0)" stroke="rgb(0,0,0)" stroke-width="1" opacity="0.796078431372549" d="M 255.5 406 L 256 413.5 L 255 413.5 L 255.5 406 Z " /><path fill="rgb(0,0,0)" stroke="rgb(0,0,0)" stroke-width="1" opacity="0.796078431372549" d="M 16.5 451 L 17 455.5 L 16 455.5 L 16.5 451 Z " /><path fill="rgb(0,0,0)" stroke="rgb(0,0,0)" stroke-width="1" opacity="0.796078431372549" d="M 255.5 451 L 256 455.5 L 255 455.5 L 255.5 451 Z " /><path fill="rgb(0,0,0)" stroke="rgb(0,0,0)" stroke-width="1" opacity="0.796078431372549" d="M 97.5 455 L 99 457.5 L 98 457.5 L 97.5 455 Z " /><path fill="rgb(0,0,0)" stroke="rgb(0,0,0)" stroke-width="1" opacity="0.796078431372549" d="M 201.5 455 L 203 457.5 L 202 457.5 L 201.5 455 Z " /><path fill="rgb(0,0,0)" stroke="rgb(0,0,0)" stroke-width="1" opacity="0.796078431372549" d="M 24.5 475 L 25.5 477 L 24.5 475 Z " /><path fill="rgb(0,0,0)" stroke="rgb(0,0,0)" stroke-width="1" opacity="0.796078431372549" d="M 247.5 475 L 246.5 477 L 247.5 475 Z " /><path fill="rgb(0,0,0)" stroke="rgb(0,0,0)" stroke-width="1" opacity="0.796078431372549" d="M 26.5 478 L 33.5 486 L 26.5 478 Z " /><path fill="rgb(0,0,0)" stroke="rgb(0,0,0)" stroke-width="1" opacity="0.796078431372549" d="M 245.5 478 L 238.5 486 L 245.5 478 Z " /><path fill="rgb(0,0,0)" stroke="rgb(0,0,0)" stroke-width="1" opacity="0.796078431372549" d="M 35.5 486 L 36.5 488 L 35.5 486 Z " /><path fill="rgb(0,0,0)" stroke="rgb(0,0,0)" stroke-width="1" opacity="0.796078431372549" d="M 236.5 486 L 235.5 488 L 236.5 486 Z " /><path fill="rgb(0,0,0)" stroke="rgb(0,0,0)" stroke-width="1" opacity="0.796078431372549" d="M 38.5 488 L 39.5 490 L 38.5 488 Z " /><path fill="rgb(0,0,0)" stroke="rgb(0,0,0)" stroke-width="1" opacity="0.796078431372549" d="M 56.5 495 L 61 495.5 L 56.5 496 L 56.5 495 Z " /><path fill="rgb(0,0,0)" stroke="rgb(0,0,0)" stroke-width="1" opacity="0.796078431372549" d="M 211.5 495 L 216 495.5 L 211.5 496 L 211.5 495 Z " /><path fill="rgb(0,0,0)" stroke="rgb(0,0,0)" stroke-width="1" opacity="1" d="M 150.5 16 L 185.5 16 Q 187 18.5 192.5 17 Q 205.5 20 213 28.5 Q 220.3 35.7 223 47.5 Q 221.5 53 224 54.5 L 224 89.5 L 220 105.5 L 211.5 117 Q 204.3 124.3 192.5 127 Q 187 125.5 185.5 128 L 150.5 128 L 134.5 124 L 123 115.5 Q 115.7 108.3 113 96.5 Q 114.5 91 112 89.5 L 112 54.5 L 116 38.5 L 124.5 27 L 134.5 20 L 150.5 16 Z " /><path fill="rgb(0,0,0)" stroke="rgb(0,0,0)" stroke-width="1" opacity="1" d="M 254.5 28 Q 272.8 25.8 278 36.5 L 280 45.5 Q 278.4 54.4 271.5 58 Q 265.4 61.4 254.5 60 Q 245.6 58.4 242 51.5 L 240 42.5 Q 241.6 33.6 248.5 30 L 254.5 28 Z " /><path fill="rgb(0,0,0)" stroke="rgb(0,0,0)" stroke-width="1" opacity="1" d="M 318.5 28 L 481.5 28 Q 490.4 29.6 494 36.5 L 496 45.5 Q 494.4 54.4 487.5 58 L 481.5 60 L 318.5 60 Q 309.6 58.4 306 51.5 L 304 42.5 Q 305.6 33.6 312.5 30 L 318.5 28 Z " /><path fill="rgb(0,0,0)" stroke="rgb(0,0,0)" stroke-width="1" opacity="1" d="M 254.5 84 L 481.5 84 Q 490.4 85.6 494 92.5 L 496 101.5 Q 494.4 110.4 487.5 114 L 481.5 116 L 254.5 116 Q 245.6 114.4 242 107.5 L 240 98.5 Q 241.6 89.6 248.5 86 L 254.5 84 Z " /><path fill="rgb(0,0,0)" stroke="rgb(0,0,0)" stroke-width="1" opacity="1" d="M 262.5 144 L 297.5 144 Q 299 146.5 304.5 145 Q 317.5 148 325 156.5 Q 332.3 163.7 335 175.5 Q 333.5 181 336 182.5 L 336 217.5 L 332 233.5 L 323.5 245 Q 316.3 252.3 304.5 255 Q 299 253.5 297.5 256 L 262.5 256 L 246.5 252 L 235 243.5 Q 227.7 236.3 225 224.5 Q 226.5 219 224 217.5 L 224 182.5 L 228 166.5 L 236.5 155 L 246.5 148 L 262.5 144 Z " /><path fill="rgb(0,0,0)" stroke="rgb(0,0,0)" stroke-width="1" opacity="1" d="M 366.5 156 Q 384.8 153.8 390 164.5 L 392 173.5 Q 390.4 182.4 383.5 186 Q 377.4 189.4 366.5 188 Q 357.6 186.4 354 179.5 L 352 170.5 Q 353.6 161.6 360.5 158 L 366.5 156 Z " /><path fill="rgb(0,0,0)" stroke="rgb(0,0,0)" stroke-width="1" opacity="1" d="M 430.5 156 L 481.5 156 Q 490.4 157.6 494 164.5 L 496 173.5 Q 494.4 182.4 487.5 186 L 481.5 188 L 430.5 188 Q 421.6 186.4 418 179.5 L 416 170.5 Q 417.6 161.6 424.5 158 L 430.5 156 Z " /><path fill="rgb(0,0,0)" stroke="rgb(0,0,0)" stroke-width="1" opacity="1" d="M 366.5 212 L 481.5 212 Q 490.4 213.6 494 220.5 L 496 229.5 Q 494.4 238.4 487.5 242 L 481.5 244 L 366.5 244 Q 357.6 242.4 354 235.5 L 352 226.5 Q 353.6 217.6 360.5 214 L 366.5 212 Z " /><path fill="rgb(0,0,0)" stroke="rgb(0,0,0)" stroke-width="1" opacity="1" d="M 121.5 221 L 150.5 221 L 160.5 223 Q 178.2 228.8 188 242.5 L 193 250.5 L 198 267.5 L 198 309.5 L 194 325.5 L 190 333.5 L 180 347 L 167.5 356 L 154.5 362 L 145.5 364 L 125.5 364 Q 102.9 359.1 90 344.5 Q 79.7 333.3 75 316.5 Q 76.3 311.8 74 310.5 L 74 266.5 Q 77.8 246.3 90.5 235 L 101.5 227 L 111.5 223 L 121.5 221 Z " /><path fill="rgb(0,0,0)" stroke="rgb(0,0,0)" stroke-width="1" opacity="1" d="M 47.5 337 Q 56.6 359.4 73.5 374 Q 88.4 387.6 110.5 394 L 125.5 397 L 146.5 397 L 161.5 394 L 179.5 387 Q 195.4 378.4 207 365.5 Q 218 353.5 224.5 337 Q 242.3 355.7 251 383.5 L 254 395.5 L 255 413.5 L 256 414.5 L 256 450.5 L 255 451.5 L 254 462.5 L 249 473.5 L 237.5 486 L 222.5 494 L 204 496 L 204 459.5 L 200 452 L 192.5 448 L 183.5 448 L 176 452 L 172 459.5 L 172 496 L 100 496 L 100 459.5 L 96 452 L 88.5 448 L 79.5 448 L 72 452 L 68 459.5 L 68 496 Q 38.5 495.8 26 477.5 Q 19.8 469.8 17 458.5 Q 18.8 452.2 16 450.5 L 16 413.5 L 17 412.5 L 18 395.5 L 24 374.5 Q 32.9 352.9 47.5 337 Z " /><path fill="rgb(0,0,0)" stroke="rgb(0,0,0)" stroke-width="1" opacity="0" d="M 0 0 L 512 0 L 512 512 L 0 512 L 0 0 Z M 146 16 Q 135 18 128 24 Q 115 32 112 50 L 112 95 Q 114 106 120 113 Q 128 125 146 128 L 191 128 Q 202 126 209 120 Q 221 112 224 95 L 224 50 Q 222 39 216 32 Q 208 19 191 16 L 146 16 Z M 253 28 L 248 30 Q 242 33 240 41 Q 239 49 242 53 Q 245 58 253 60 L 268 60 L 273 58 Q 278 55 280 48 Q 281 40 278 36 Q 272 25 253 28 Z M 317 28 L 312 30 Q 306 33 304 41 Q 303 49 306 53 Q 309 58 317 60 L 484 60 L 489 58 Q 494 55 496 48 Q 497 40 494 36 Q 491 30 484 28 L 317 28 Z M 253 84 L 248 86 Q 242 89 240 97 Q 239 105 242 109 Q 245 114 253 116 L 484 116 L 489 114 Q 494 111 496 104 Q 497 96 494 92 Q 491 86 484 84 L 253 84 Z M 258 144 Q 247 146 240 152 Q 227 160 224 178 L 224 223 Q 226 234 232 241 Q 240 253 258 256 L 303 256 Q 314 254 321 248 Q 333 240 336 223 L 336 178 Q 334 167 328 160 Q 320 147 303 144 L 258 144 Z M 365 156 L 360 158 Q 354 161 352 169 Q 351 177 354 181 Q 357 186 365 188 L 380 188 L 385 186 Q 390 183 392 176 Q 393 168 390 164 Q 384 153 365 156 Z M 429 156 L 424 158 Q 418 161 416 169 Q 415 177 418 181 Q 421 186 429 188 L 484 188 L 489 186 Q 494 183 496 176 Q 497 168 494 164 Q 491 158 484 156 L 429 156 Z M 365 212 L 360 214 Q 354 217 352 225 Q 351 233 354 237 Q 357 242 365 244 L 484 244 L 489 242 Q 494 239 496 232 Q 497 224 494 220 Q 491 214 484 212 L 365 212 Z M 119 221 Q 103 224 94 232 L 80 248 L 75 260 L 73 271 L 73 307 Q 76 308 74 314 Q 77 330 86 341 Q 94 351 107 358 L 120 363 L 130 365 L 143 365 L 153 363 L 175 352 Q 187 342 194 327 L 198 313 L 198 303 L 199 302 L 199 275 L 198 274 L 198 265 Q 195 250 187 241 Q 177 227 159 222 L 154 221 L 119 221 Z M 48 337 L 39 347 L 26 369 L 19 389 L 17 399 L 17 406 L 16 407 L 16 456 Q 18 470 26 479 Q 34 488 46 493 L 57 496 L 68 496 L 68 461 L 71 455 L 81 448 Q 89 447 94 451 Q 98 455 100 462 L 100 496 L 172 496 L 172 461 L 175 455 L 185 448 Q 193 447 198 451 Q 202 455 204 462 L 204 496 L 221 495 L 239 486 Q 252 476 256 456 L 256 407 L 255 406 L 254 394 Q 247 362 229 342 L 223 337 Q 219 352 209 363 Q 197 378 179 387 L 164 393 L 141 397 L 122 396 L 109 393 Q 90 387 77 376 Q 59 362 49 340 Q 50 336 48 337 Z " /></svg>